<svg xmlns="http://www.w3.org/2000/svg" xmlns:xlink="http://www.w3.org/1999/xlink" width="28" height="28" viewBox="0 0 28 28"><defs><style>.a,.c{stroke:#ff6002;}.a{fill:url(#a);}.b{fill:#fff;}.c,.e{fill:none;}.d{stroke:none;}</style><linearGradient id="a" x1="0.5" x2="0.5" y2="1" gradientUnits="objectBoundingBox"><stop offset="0" stop-color="#ff6002"/><stop offset="1" stop-color="#c22de1"/></linearGradient></defs><g transform="translate(-258 -346)"><g class="a" transform="translate(258 346)"><circle class="d" cx="14" cy="14" r="14"/><circle class="e" cx="14" cy="14" r="13.5"/></g><path class="b" d="M6.011,0C5.089.019,4.485,1.008,3.859,1.335c-.712.372-2.093.265-2.5,1.371C.684,4.518,4.737,6.169,4.737,6.169A9.5,9.5,0,0,0,2.7,5.98C1.557,6.008.3,6.317.026,7.48-.2,8.435.87,9.026,1.178,9.6c.269.5.1,1.426.8,2.026a1.5,1.5,0,0,0,1.039.41C4.464,12,5.895,9.7,6.741,8.373a1.391,1.391,0,0,1,1.132-.64h.08c.514.018,1.147.043,1.8.027,1.8-.044,3.732-.4,3.555-2.121-.094-.915-.942-1.307-1.2-1.815-.292-.583-.163-1.806-1.07-2.163a1.6,1.6,0,0,0-.63-.115C8.6,1.589,7.286,4.817,7.286,4.817S8.252.518,6.392.041A1.392,1.392,0,0,0,6.011,0ZM7.2,8.788,7.2,8.8a5.918,5.918,0,0,0,4.23,3.185.484.484,0,0,0,.107.009c.216-.005,1.167-.931,1.167-.931a6.3,6.3,0,0,1-1.038.018A5,5,0,0,1,8.047,8.354H8.015S7.553,8.574,7.2,8.788Z" transform="translate(269.305 351.041) rotate(30)"/><g data-type="innerShadowGroup"><circle class="b" cx="14" cy="14" r="14" transform="translate(258 346)"/><g class="c" transform="translate(258 346)"><circle class="d" cx="14" cy="14" r="14"/><circle class="e" cx="14" cy="14" r="13.5"/></g></g></g></svg>