<svg xmlns="http://www.w3.org/2000/svg" xmlns:xlink="http://www.w3.org/1999/xlink" width="72" height="72" viewBox="0 0 72 72">
  <defs>
    <linearGradient id="linear-gradient" x1="0.5" x2="0.5" y2="1" gradientUnits="objectBoundingBox">
      <stop offset="0" stop-color="#ff6002"/>
      <stop offset="1" stop-color="#c22de1"/>
    </linearGradient>
    <filter id="Ellipse_44">
      <feOffset dy="3" input="SourceAlpha"/>
      <feGaussianBlur stdDeviation="3" result="blur"/>
      <feFlood flood-opacity="0.4" result="color"/>
      <feComposite operator="out" in="SourceGraphic" in2="blur"/>
      <feComposite operator="in" in="color"/>
      <feComposite operator="in" in2="SourceGraphic"/>
    </filter>
  </defs>
  <g id="Clover" transform="translate(-258 -346)">
    <g id="Ellipse_42" data-name="Ellipse 42" transform="translate(258 346)" stroke="#ff6002" stroke-width="1" fill="url(#linear-gradient)">
      <circle cx="36" cy="36" r="36" stroke="none"/>
      <circle cx="36" cy="36" r="35.5" fill="none"/>
    </g>
    <path id="three_leaf_clover1" d="M21.418,4.043c-2.917,0-4.748,3.172-6.7,4.186-2.222,1.153-6.6.7-7.809,4.264C4.923,18.341,17.879,24.039,17.879,24.039a29.752,29.752,0,0,0-6.449-.779c-3.624,0-7.575.906-8.352,4.67-.639,3.092,2.793,5.1,3.814,6.994.891,1.651.445,4.652,2.682,6.66A4.91,4.91,0,0,0,12.893,43c4.586,0,8.929-7.383,11.5-11.627a4.125,4.125,0,0,1,3.531-1.992c.083,0,.168,0,.252.008,1.627.1,3.633.23,5.689.23,5.7,0,11.773-1.02,11.078-6.623-.371-2.987-3.084-4.331-3.93-6.006-.969-1.92-.661-5.893-3.559-7.129a5.06,5.06,0,0,0-2-.426c-5.727,0-9.619,10.4-9.619,10.4S28.548,5.919,22.625,4.219A4.367,4.367,0,0,0,21.418,4.043ZM25.895,32.76l-.025.039A20.1,20.1,0,0,0,39.5,43.506a1.511,1.511,0,0,0,.338.039c.684,0,3.618-2.938,3.618-2.938a19.319,19.319,0,0,1-3.283-.025,16.987,16.987,0,0,1-11.654-9.168l-.1-.006S26.98,32.094,25.895,32.76Z" transform="translate(285.175 348.999) rotate(30)" fill="#fff"/>
    <g data-type="innerShadowGroup">
      <g transform="matrix(1, 0, 0, 1, 258, 346)" filter="url(#Ellipse_44)">
        <circle id="Ellipse_44-2" data-name="Ellipse 44" cx="36" cy="36" r="36" fill="#fff"/>
      </g>
      <g id="Ellipse_44-3" data-name="Ellipse 44" transform="translate(258 346)" fill="none" stroke="#ff6002" stroke-width="1">
        <circle cx="36" cy="36" r="36" stroke="none"/>
        <circle cx="36" cy="36" r="35.5" fill="none"/>
      </g>
    </g>
  </g>
</svg>
