<svg xmlns="http://www.w3.org/2000/svg" xmlns:xlink="http://www.w3.org/1999/xlink" width="74.363" height="57.789" viewBox="0 0 74.363 57.789"><defs><style>.a{fill:#9b33cd;}.b{fill:#25123d;}.c{fill:#1f212b;}.d{fill:url(#a);}.e{fill:#fff;}</style><linearGradient id="a" x1="0.5" x2="0.5" y2="1" gradientUnits="objectBoundingBox"><stop offset="0" stop-color="#ff6002"/><stop offset="1" stop-color="#c22de1"/></linearGradient></defs><g transform="translate(-20.377 -26.791)"><path class="a" d="M29.844,37.651a29.4,29.4,0,0,0-7.472,13.607C19.066,64.341,24.264,77,34.632,79.663l.174.042v0l9.067,2.325.016-.063c10.039,1.812,20.465-6.493,23.655-19.112s-2.025-24.933-11.7-28.176l.006-.025-.505-.13c-.2-.058-.388-.119-.586-.171s-.4-.09-.595-.132l-7.381-1.893v0l-.172-.047a15.789,15.789,0,0,0-10.2.846" transform="translate(0.228 1.136)"/><path class="b" d="M46.885,83.67a16.769,16.769,0,0,1-2.636-.207,1.065,1.065,0,0,1-.453-.016L34.729,81.12c-.021-.006-.04-.011-.06-.018l-.125-.029C23.656,78.282,17.882,65.15,21.411,51.182a30.475,30.475,0,0,1,7.795-14.174,1.226,1.226,0,1,1,1.733,1.735,28.035,28.035,0,0,0-7.148,13.041C20.6,64.423,25.593,76.244,35.166,78.7a1.261,1.261,0,0,1,.171.056l0-.012,8.7,2.23a1.1,1.1,0,0,1,.3.014c9.456,1.706,19.234-6.288,22.246-18.2S64.8,39.129,55.679,36.07a1.174,1.174,0,0,1-.146-.06l-.267-.069c-.018,0-.147-.043-.164-.049-.139-.042-.277-.083-.418-.12s-.261-.063-.389-.088l-.164-.034-7.335-1.881a1.038,1.038,0,0,1-.107-.025l.146-1.212h0l-.3,1.17a14.636,14.636,0,0,0-9.414.789,1.227,1.227,0,1,1-.957-2.26,17.1,17.1,0,0,1,10.981-.905l.106.028.067.016L54.8,33.284c.166.034.331.07.494.113s.347.1.523.15l.563.148a1.246,1.246,0,0,1,.319.131c10.18,3.585,15.562,16.5,12.263,29.559C65.943,75.326,56.6,83.67,46.885,83.67Z" transform="translate(0 0.911)"/><path class="c" d="M44.385,82.934l-9.831-2.521-.025-.006-.353-.091v0C23.848,77.4,18.44,64.736,21.846,51.262l1.19.3C19.758,64.533,24.95,76.683,34.853,79.223l.721.166,0,.02,7.925,2.03.7-2.775.294-.114c6.761-2.625,12.268-9.429,14.373-17.756s.5-16.959-4.2-22.522l-.2-.24.7-2.777-7.877-2.019v.007l-.6-.158.066-.616-.5-.126.15-.6.421.107h0l.178.045,9.66,2.477-.848,3.354c4.787,5.865,6.415,14.785,4.245,23.37S52.222,76.729,45.233,79.575Z" transform="translate(0.103 1.123)"/><path class="d" d="M41.317,81.464c-10.369-2.658-16.093-15.418-12.787-28.5S42.921,31.432,53.29,34.09s16.093,15.418,12.787,28.5S51.685,84.123,41.317,81.464Z" transform="translate(1.637 1.544)"/><path class="b" d="M45.34,82.689a16.339,16.339,0,0,1-4.063-.515C30.6,79.437,24.664,66.317,28.048,52.929c1.878-7.432,6.285-13.672,12.09-17.121a17.406,17.406,0,0,1,13.418-2.2c10.679,2.737,16.613,15.857,13.229,29.245C64.907,70.288,60.5,76.528,54.7,79.977A18.275,18.275,0,0,1,45.34,82.689ZM49.5,34.325a17.052,17.052,0,0,0-8.733,2.537c-5.527,3.284-9.728,9.25-11.527,16.366-3.219,12.735,2.32,25.186,12.344,27.757a16.212,16.212,0,0,0,12.487-2.063C59.6,75.638,63.8,69.672,65.6,62.556,68.814,49.82,63.276,37.37,53.252,34.8A15.131,15.131,0,0,0,49.5,34.325Z" transform="translate(1.524 1.43)"/><path class="c" d="M36.156,64.632a.611.611,0,0,1-.507-.267c-.118-.173-.151-.228-.213-.335l-.09-.152a.613.613,0,1,1,1.053-.631l.1.166c.049.083.074.128.164.26a.613.613,0,0,1-.159.853A.6.6,0,0,1,36.156,64.632Z" transform="translate(3.375 8.199)"/><path class="b" d="M44.689,75.007a9.461,9.461,0,0,1-2.352-.3,10.17,10.17,0,0,1-5.3-3.48.613.613,0,0,1,.947-.779,8.828,8.828,0,0,0,4.657,3.071,9.346,9.346,0,0,0,7.174-1.262c3.908-2.323,7.071-6.988,8.46-12.48,2.325-9.195-.91-17.989-7.208-19.6a9.353,9.353,0,0,0-7.175,1.262c-3.908,2.323-7.07,6.988-8.457,12.48a24.3,24.3,0,0,0-.745,5.341,20.8,20.8,0,0,0,.521,5.3.614.614,0,0,1-1.195.281,22.061,22.061,0,0,1-.553-5.615,25.538,25.538,0,0,1,.783-5.61c1.466-5.8,4.838-10.748,9.02-13.233a10.554,10.554,0,0,1,8.106-1.4c6.952,1.782,10.583,11.245,8.094,21.092-1.466,5.8-4.84,10.75-9.022,13.234A11.269,11.269,0,0,1,44.689,75.007Z" transform="translate(2.965 2.699)"/><path class="e" d="M22.143,47.776l7.567,2.168" transform="translate(0.401 4.759)"/><path class="b" d="M29.824,50.671a.577.577,0,0,1-.169-.025l-7.567-2.168a.613.613,0,1,1,.337-1.179l7.567,2.168a.614.614,0,0,1-.168,1.2Z" transform="translate(0.287 4.645)"/><g transform="translate(26.28 42.192)"><path class="e" d="M25.688,39.848l7.568,2.168" transform="translate(-25.075 -39.231)"/><path class="b" d="M33.369,42.743a.577.577,0,0,1-.169-.025L25.633,40.55a.613.613,0,0,1,.337-1.179l7.567,2.169a.614.614,0,0,1-.168,1.2Z" transform="translate(-25.189 -39.345)"/></g><g transform="translate(21.194 62.68)"><path class="e" d="M21.542,56.548l7.567,2.168" transform="translate(-20.929 -55.932)"/><path class="b" d="M29.223,59.443a.577.577,0,0,1-.169-.025l-7.567-2.168a.613.613,0,1,1,.337-1.179l7.567,2.168a.614.614,0,0,1-.168,1.2Z" transform="translate(-21.043 -56.046)"/></g><g transform="translate(41.215 27.553)"><path class="a" d="M70.159,82.015l-.11-3.5c6.36-4.827,10.473-13.755,10.155-23.851S75.219,35.888,68.568,31.425l-.11-3.5-10.362.29v0c-.066,0-.131,0-.2,0-11.849.331-20.486,12.65-20.016,27.588s9.866,26.834,21.716,26.5l.2-.009v0Z" transform="translate(-37.249 -27.295)"/><path class="c" d="M59.3,83.054v-.006h-.072c-11.808,0-21.359-11.786-21.841-27.1-.274-8.683,2.465-16.736,7.511-22.09a18.5,18.5,0,0,1,13.1-6.13l.215.611-.017-.613,10.973-.309.12,3.8c6.885,4.768,11.338,13.758,11.646,23.553S77.356,73.781,70.784,78.928l.119,3.8Zm8.683-54.381-9.909.277A17.324,17.324,0,0,0,45.787,34.7c-4.825,5.119-7.44,12.852-7.179,21.211.467,14.848,9.777,26.255,21.086,25.908l.631-.018h0l9.315-.261-.1-3.2.253-.191C76.2,73.276,80,64.332,79.7,54.8S75.051,36.555,68.34,32.052l-.261-.175Z" transform="translate(-37.363 -27.412)"/><path class="d" d="M67.294,82.028c-11.849.331-21.836-11.508-22.306-26.444s8.757-27.314,20.606-27.645S87.431,39.447,87.9,54.382,79.144,81.7,67.294,82.028Z" transform="translate(-35.637 -27.294)"/><path class="b" d="M66.925,82.762c-11.949,0-21.963-12.005-22.436-27.047C44.222,47.249,47,39.279,52.12,33.848a19.221,19.221,0,0,1,13.569-6.411c12.192-.319,22.457,11.789,22.936,27.038.266,8.467-2.515,16.437-7.633,21.868a19.217,19.217,0,0,1-13.569,6.411C67.258,82.759,67.09,82.762,66.925,82.762Zm-.734-54.1c-.156,0-.31,0-.466.007a18.012,18.012,0,0,0-12.711,6.026c-4.895,5.194-7.556,12.844-7.3,20.986.451,14.378,9.92,25.857,21.208,25.858.156,0,.31,0,.466-.007A18.012,18.012,0,0,0,80.1,75.5c4.895-5.194,7.556-12.844,7.3-20.988C86.948,40.137,77.48,28.658,66.191,28.658Z" transform="translate(-35.751 -27.408)"/><path class="c" d="M70.7,63.343a.613.613,0,0,1-.47-1.006q.383-.458.739-.953a.614.614,0,1,1,1,.716q-.383.532-.794,1.023A.617.617,0,0,1,70.7,63.343Z" transform="translate(-29.943 -19.766)"/><path class="b" d="M69.458,74.05c-7.785,0-14.347-8.857-14.7-19.929-.207-6.607,1.867-12.885,5.551-16.793A11.618,11.618,0,0,1,68.47,33.39c.1,0,.194,0,.288,0,7.784,0,14.346,8.856,14.694,19.928a25.937,25.937,0,0,1-2.639,12.6.614.614,0,1,1-1.093-.558,24.719,24.719,0,0,0,2.505-12.006c-.331-10.534-6.48-19-13.723-18.735a10.422,10.422,0,0,0-7.3,3.553c-3.466,3.677-5.416,9.626-5.219,15.915.331,10.534,6.5,18.89,13.723,18.736a9.626,9.626,0,0,0,5.2-1.743A.613.613,0,1,1,75.6,72.09a10.83,10.83,0,0,1-5.853,1.957Zm-22.6-19.2H38.267a.613.613,0,1,1,0-1.227h8.587a.613.613,0,1,1,0,1.227Z" transform="translate(-37.297 -26.057)"/><g transform="translate(1.584 16.525)"><path class="c" d="M47.855,42.109H39.267a.613.613,0,1,1,0-1.227h8.587a.613.613,0,1,1,0,1.227Z" transform="translate(-38.654 -40.882)"/></g><g transform="translate(2.811 39.833)"><path class="c" d="M48.855,61.109H40.267a.613.613,0,0,1,0-1.227h8.587a.613.613,0,1,1,0,1.227Z" transform="translate(-39.654 -59.882)"/></g></g><path class="b" d="M59.417,83.634c-12.21,0-22.028-12.043-22.519-27.7-.278-8.844,2.52-17.056,7.677-22.528a19.1,19.1,0,0,1,13.53-6.323l0,.016a1.283,1.283,0,0,1,.2-.022l8.564-.245c.182-.012.364-.026.548-.029s.369,0,.559,0l.162,0,.528-.017a1.738,1.738,0,0,1,.361.044c11.869.7,21.488,12.761,21.954,27.6h0c.465,14.8-8.335,27.357-20.093,28.78a1.1,1.1,0,0,1-.453.118l-10.362.29L59.888,82.4l.05,1.227C59.765,83.632,59.59,83.634,59.417,83.634ZM58.14,28.312l.034,1.227A16.709,16.709,0,0,0,46.362,35.09c-4.713,5-7.269,12.572-7.011,20.77.449,14.307,9.2,25.323,20.009,25.323.15,0,.3,0,.447-.007l.2-.009,9.966-.276a1.073,1.073,0,0,1,.305-.076c10.664-1.075,18.682-12.628,18.252-26.3h0C88.1,40.836,79.364,29.748,68.646,29.272a1.183,1.183,0,0,1-.175-.021l-.312.01-.224,0c-.15,0-.3-.006-.448,0s-.3.016-.448.026l-.186.013-8.385.234q-.053.006-.107.007Z" transform="translate(3.742)"/><g transform="translate(68.562 46.53)"><path class="b" d="M61.334,56.377a.4.4,0,0,1,.15.07l-.038-.018a8.3,8.3,0,0,0,.972.548,3.632,3.632,0,0,0,.915.286v-5.7l-.309-.162q-.567-.291-1.082-.612a6.009,6.009,0,0,1-.927-.71,4.466,4.466,0,0,1-.7-.823,2.7,2.7,0,0,1-.386-.952,2.267,2.267,0,0,1-.077-.483c-.006-.151-.009-.312-.009-.483a3.071,3.071,0,0,1,.266-1.324,2.864,2.864,0,0,1,.73-.961,3.592,3.592,0,0,1,1.1-.629,5.8,5.8,0,0,1,1.391-.314v-.453a.949.949,0,0,1,.155-.548.638.638,0,0,1,.567-.226h.022s.921.535.979,1.083l-.017.436a6.588,6.588,0,0,1,.988.25q.506.171,1.142.428l-.052-.032a1.277,1.277,0,0,1,.455.242,1.594,1.594,0,0,0,.669.469v.1c-.471.075-.492.172-.531.291a1.206,1.206,0,0,1-.18.339,1.5,1.5,0,0,1-.275.282.548.548,0,0,1-.343.12,1.558,1.558,0,0,1-.283-.023c-.086-.017.386-.137.386-.137v.016l-.876-.1a4.351,4.351,0,0,0-1.578-.388v4.405l.547.032a7.1,7.1,0,0,1,2.147,1.468,4.036,4.036,0,0,1,1,1.678,5.273,5.273,0,0,1,.146.677,4.606,4.606,0,0,1,.043.629,3.349,3.349,0,0,1-.258,1.34,3.309,3.309,0,0,1-.7,1.042,3.6,3.6,0,0,1-1.073.726,4.937,4.937,0,0,1-1.844.379v1.162c.478.215.432.4.341.548s-.567.942-.567.942h.027a1.122,1.122,0,0,1-.747-.236.846.846,0,0,1-.28-.687V59.2A5.976,5.976,0,0,1,61.6,58.78,11.729,11.729,0,0,1,60.1,58a.983.983,0,0,1-.28-.294,3.221,3.221,0,0,1-.168-.384v-.1a.8.8,0,0,1,.1-.357,2.085,2.085,0,0,1,.253-.383,1.958,1.958,0,0,1,.318-.313.526.526,0,0,1,.318-.131.615.615,0,0,1,.364.114c.105.075.207.153.308.234h.016a.145.145,0,0,0,.056.018Zm1.046-7.217a4.4,4.4,0,0,0,.953.631V46.256a2.383,2.383,0,0,0-1.091.5,1.244,1.244,0,0,0-.438,1c0,.065,0,.135.009.211a1.916,1.916,0,0,0,.043.274A1.63,1.63,0,0,0,62.381,49.16Zm3,4.253a3.448,3.448,0,0,0-.824-.686v4.016a2.42,2.42,0,0,0,1-.693,1.627,1.627,0,0,0,.4-1.1,1.385,1.385,0,0,0-.034-.323c-.023-.1-.047-.2-.069-.307A2.23,2.23,0,0,0,65.384,53.413Z" transform="translate(-59.655 -42.881)"/></g></g></svg>