<svg xmlns="http://www.w3.org/2000/svg" xmlns:xlink="http://www.w3.org/1999/xlink" width="50.2" height="50.217" viewBox="0 0 50.2 50.217"><defs><style>.a{stroke:#291f36;stroke-width:2px;fill:url(#a);}</style><linearGradient id="a" x1="0.5" y1="0.798" x2="0.5" y2="0.052" gradientUnits="objectBoundingBox"><stop offset="0" stop-color="#ff6002"/><stop offset="1" stop-color="#c22de1"/></linearGradient></defs><path class="a" d="M27.1,3a6.022,6.022,0,0,0-2.216.428L7.97,10.078a1.459,1.459,0,0,0-.035,2.7L25.916,20.4a3.053,3.053,0,0,0,2.369,0l17.981-7.622a1.459,1.459,0,0,0-.035-2.7L29.316,3.426A6.022,6.022,0,0,0,27.1,3Zm0,6.029c2.219,0,4.017.9,4.017,2.008s-1.8,2.008-4.017,2.008-4.017-.9-4.017-2.008S24.881,9.027,27.1,9.027ZM4.777,16.076A1.988,1.988,0,0,0,3,18.053V38.23a5.989,5.989,0,0,0,3.354,5.4s9.3,4.577,14.8,7.272a2.739,2.739,0,0,0,3.942-2.467V27.208a4.217,4.217,0,0,0-2.569-3.883l-16.765-7.1A1.962,1.962,0,0,0,4.777,16.076Zm44.646,0a1.962,1.962,0,0,0-.98.149l-16.765,7.1a4.217,4.217,0,0,0-2.569,3.883V48.433A2.741,2.741,0,0,0,33.051,50.9c5.5-2.7,14.8-7.272,14.8-7.272a6,6,0,0,0,3.354-5.4V18.053A1.988,1.988,0,0,0,49.423,16.076Zm-40.8,5.578a1.379,1.379,0,0,1,.4.067c1.109.347,2.008,1.979,2.008,3.644s-.9,2.73-2.008,2.381S7.017,25.766,7.017,24.1C7.017,22.644,7.706,21.646,8.621,21.654Zm36.958.722c.915-.007,1.6.993,1.6,2.448,0,1.663-.9,3.3-2.008,3.644s-2.008-.718-2.008-2.381.9-3.294,2.008-3.644A1.373,1.373,0,0,1,45.579,22.375ZM37.546,25.67c.915-.007,1.6.993,1.6,2.448,0,1.663-.9,3.3-2.008,3.644s-2.008-.718-2.008-2.381.9-3.295,2.008-3.644A1.379,1.379,0,0,1,37.546,25.67ZM45.579,33.7c.915-.007,1.6.993,1.6,2.448,0,1.663-.9,3.3-2.008,3.644s-2.008-.718-2.008-2.381.9-3.295,2.008-3.644A1.379,1.379,0,0,1,45.579,33.7ZM16.654,37.72a1.379,1.379,0,0,1,.4.067c1.109.347,2.008,1.979,2.008,3.644s-.9,2.73-2.008,2.381-2.008-1.979-2.008-3.644C15.05,38.711,15.739,37.713,16.654,37.72Zm20.891,0c.915-.007,1.6.993,1.6,2.448,0,1.663-.9,3.3-2.008,3.644s-2.008-.718-2.008-2.381.9-3.295,2.008-3.644A1.379,1.379,0,0,1,37.546,37.72Z" transform="translate(-2 -1.998)"/></svg>