<svg xmlns="http://www.w3.org/2000/svg" xmlns:xlink="http://www.w3.org/1999/xlink" width="85.756" height="75.201" viewBox="0 0 85.756 75.201"><defs><style>.a{fill:url(#a);}.b{fill:url(#b);}.c{fill:#291f36;}</style><linearGradient id="a" x1="0.5" x2="0.5" y2="1" gradientUnits="objectBoundingBox"><stop offset="0" stop-color="#291f36"/><stop offset="1" stop-color="#c22de1"/></linearGradient><linearGradient id="b" x1="0.5" x2="0.5" y2="1" gradientUnits="objectBoundingBox"><stop offset="0" stop-color="#ff6002"/><stop offset="1" stop-color="#c22de1"/></linearGradient></defs><g transform="translate(-969.993 -189.486)"><g transform="translate(1030.334 226.181) rotate(56)"><path class="a" d="M19.612,7.073c0-2.8-3.943-5.073-8.806-5.073S2,4.271,2,7.073V37.514c0,2.8,3.943,5.073,8.806,5.073s8.806-2.271,8.806-5.073Z" transform="matrix(-1, -0.017, 0.017, -1, 20.983, 25.266)"/><path class="b" d="M10.828,22.864C5.953,22.864,2,20.015,2,16.5v7.636C2,27.652,5.953,30.5,10.828,30.5s8.828-2.848,8.828-6.364V16.5C19.656,20.015,15.7,22.864,10.828,22.864Z" transform="translate(-0.492)"/><path class="b" d="M10.9,16.864C5.983,16.864,2,14.015,2,10.5v7.636C2,21.652,5.983,24.5,10.9,24.5s8.9-2.848,8.9-6.364V10.5C19.791,14.015,15.807,16.864,10.9,16.864Z" transform="translate(-0.422 -8.599)"/><path class="b" d="M10.875,10.864C5.974,10.864,2,8.015,2,4.5v7.636C2,15.652,5.974,18.5,10.875,18.5s8.875-2.848,8.875-6.364V4.5C19.751,8.015,15.776,10.864,10.875,10.864Z" transform="matrix(1, 0.017, -0.017, 1, 0.018, -17.387)"/></g><g transform="translate(992.549 217.191) rotate(21)"><path class="c" d="M28.2,9.42C28.2,5.321,22.332,2,15.1,2S2,5.321,2,9.42V53.942c0,4.1,5.866,7.42,13.1,7.42s13.1-3.321,13.1-7.42Z" transform="translate(-9.12 -28.943)"/><path class="b" d="M15.27,26.08C7.942,26.08,2,21.792,2,16.5V28c0,5.292,5.942,9.58,13.27,9.58S28.54,33.288,28.54,28V16.5C28.54,21.792,22.6,26.08,15.27,26.08Z" transform="translate(-9.446 5.97)"/><path class="b" d="M15.229,20.082C7.924,20.082,2,15.793,2,10.5V22c0,5.293,5.924,9.582,13.229,9.582S28.459,27.291,28.459,22V10.5C28.459,15.793,22.535,20.082,15.229,20.082Z" transform="translate(-9.25 -9.202)"/><path class="b" d="M15.371,14.082C7.988,14.082,2,9.793,2,4.5V16c0,5.293,5.988,9.582,13.371,9.582S28.743,21.291,28.743,16V4.5C28.743,9.793,22.755,14.082,15.371,14.082Z" transform="translate(-9.396 -26.747)"/></g></g></svg>