<svg xmlns="http://www.w3.org/2000/svg" xmlns:xlink="http://www.w3.org/1999/xlink" width="137.666" height="31.062" viewBox="0 0 137.666 31.062"><defs><style>.a{fill:#fbfcfd;opacity:0.98;}.b{stroke:rgba(0,0,0,0);stroke-miterlimit:10;fill:url(#a);}</style><linearGradient id="a" x1="0.071" y1="0.438" x2="1.133" y2="0.404" gradientUnits="objectBoundingBox"><stop offset="0" stop-color="#ff6002"/><stop offset="1" stop-color="#c22de1"/></linearGradient></defs><g transform="translate(-113.1 153)"><path class="a" d="M1.664-24.351a45.111,45.111,0,0,1-.6-6.607q.05-2.035,1.306-2.487a23.9,23.9,0,0,1,8.265-1.03,28.3,28.3,0,0,1,7.813,1.281q3.366,1.206,5.25,5.778t.98,12.56a8.912,8.912,0,0,1-1.181,3.718A8.715,8.715,0,0,1,21.083-8.45a15.548,15.548,0,0,1-3.215,1.758A17.64,17.64,0,0,1,14.2-5.636a36.28,36.28,0,0,1-3.718.452,26.388,26.388,0,0,1-3.442.025A24.787,24.787,0,0,1,4.3-5.46a10.88,10.88,0,0,1-1.683-.4q-1.206-.5-1.281-3.668t.251-7.838A42.965,42.965,0,0,0,1.664-24.351Zm10.249,5.929a7.785,7.785,0,0,1,0,1.256,1.821,1.821,0,0,0,.075.829,2.535,2.535,0,0,1,.151.5.312.312,0,0,0,.226.251,2.224,2.224,0,0,0,.327.1,2.081,2.081,0,0,0,.377.025h.452a1.563,1.563,0,0,0,.553-.2.937.937,0,0,0,.377-.427,5.917,5.917,0,0,0,.226-.578,2.414,2.414,0,0,0,.1-.754v-.8q0-.352-.05-.854t-.1-.829q-.05-.327-.126-.829t-.126-.754a3.294,3.294,0,0,0-.754-2.035,1.671,1.671,0,0,0-1.658-.126.828.828,0,0,0-.578.578,1.681,1.681,0,0,0,.1.879,8.934,8.934,0,0,1,.327,1.558A11.946,11.946,0,0,1,11.914-18.423Z" transform="translate(112.042 -117.502)"/><path class="a" d="M27.036-16.966a20.31,20.31,0,0,0-.276-2.763q-.226-1.306-.4-1.959t-.3-1.231a1.349,1.349,0,0,1,0-.829,1.009,1.009,0,0,1,.477-.427,6.161,6.161,0,0,1,1.156-.377,28.079,28.079,0,0,1,6.13-.327,5.6,5.6,0,0,1,2.914,1.13,4.043,4.043,0,0,0,.377.352.52.52,0,0,1,.151.226.268.268,0,0,1,0,.276,1.413,1.413,0,0,0-.151.477q-.075.377-.2.829a11.269,11.269,0,0,0-.251,1.357q-.126.9-.176,2.06A29.669,29.669,0,0,0,36.758-13q.377,2.814.628,4.019a5.565,5.565,0,0,1-.05,2.462q-.352.653-2.537.955a21.109,21.109,0,0,1-4.5.126,6.786,6.786,0,0,1-3.015-.678,1.5,1.5,0,0,1-.6-1.206,8.439,8.439,0,0,1,.05-2.035q.151-1.13.276-3.291A41.318,41.318,0,0,0,27.036-16.966Zm.628-17.786a6.28,6.28,0,0,1,4.07-1.357,6.179,6.179,0,0,1,4.044,1.357,4.138,4.138,0,0,1,1.658,3.316,4.072,4.072,0,0,1-1.683,3.266,6.243,6.243,0,0,1-4.044,1.357,6.243,6.243,0,0,1-4.044-1.357,4.072,4.072,0,0,1-1.683-3.266A4.117,4.117,0,0,1,27.664-34.751Z" transform="translate(112.042 -116.892)"/><path class="a" d="M41.154-7.621a7.515,7.515,0,0,1-2.06-4.522,25.443,25.443,0,0,1-.276-6.481,36.549,36.549,0,0,1,.98-6q.7-2.738,1.507-3.391A9.428,9.428,0,0,1,45.149-29.6a21.651,21.651,0,0,1,4.949-.477,28.959,28.959,0,0,1,4.647.452,8.02,8.02,0,0,1,3.09,1.055,3.2,3.2,0,0,1,1.256,1.633,7.3,7.3,0,0,1,.352,2.738q-.05,1.658-.151,2.487t-.352,2.437a3.443,3.443,0,0,1-1.934,2.311,9.612,9.612,0,0,1-3.844,1.231,11.377,11.377,0,0,1-4.07-.276,2.549,2.549,0,0,1-1.583-1.156,1.851,1.851,0,0,1-.126-1.482,5.1,5.1,0,0,0,.276-1.507,1.884,1.884,0,0,0-.377-1.281q-.7-.653-1.557.754a4.3,4.3,0,0,0-.4,3.919A3.777,3.777,0,0,0,47.837-14.4a7.726,7.726,0,0,0,3.467.578,9.631,9.631,0,0,0,2.788-.553q1.08-.427,2.261-.929a5.134,5.134,0,0,1,1.834-.5q1-.05,1.281,1.482a8.973,8.973,0,0,1-.151,3.492,8.624,8.624,0,0,1-1.281,3.165q-.9,1.306-4.095,2.035a20.683,20.683,0,0,1-6.959.3A10.19,10.19,0,0,1,41.154-7.621Z" transform="translate(112.042 -116.917)"/><path class="b" d="M59.176-152.728a15.99,15.99,0,0,1-4.848-1.03,5.855,5.855,0,0,1-1.382-.753,2.351,2.351,0,0,1-.627-.754,2.378,2.378,0,0,1-.126-1.23q.076-.829.175-1.809t.176-2.99q.076-2.009.025-4.22-.1-2.612-.327-5.3t-.4-4.145q-.176-1.457-.226-2.813a6.022,6.022,0,0,1,.2-2.085,2.167,2.167,0,0,1,.854-1.13q2.813-.351,4.447-.527t4.195-.377a40.555,40.555,0,0,1,4.22-.15q1.658.05,3.492.226a10.63,10.63,0,0,1,3.09.7,5.421,5.421,0,0,1,2.01,1.382,5.792,5.792,0,0,1,1.407,2.336,7.66,7.66,0,0,1,.4,2.687,11.045,11.045,0,0,1-.352,2.437,3.882,3.882,0,0,1-.954,1.784,1.569,1.569,0,0,1-1.457.5,12.977,12.977,0,0,0-4.472.076q-2.361.427-2.461,1.331-.05.552.553.6a12.666,12.666,0,0,0,1.959-.076,15.386,15.386,0,0,1,3.467.176,4.616,4.616,0,0,1,3.994,3.492,13.676,13.676,0,0,1-.175,7.361q-.452,2.059-3.392,3.215a19.609,19.609,0,0,1-6.531,1.282q-1,.035-1.973.035Q61.59-152.493,59.176-152.728Zm5.049-11.38q-.552,0-.628.251a3.066,3.066,0,0,0,.175,1.206q.2.9.3,1.608.1.6.176.954a2.545,2.545,0,0,0,.2.6c.084.167.142.285.176.352s.1.092.2.076a.922.922,0,0,0,.251-.076c.067-.033.193-.1.377-.2s.343-.185.477-.251q.4-.151.452-.93a4.326,4.326,0,0,0-.2-1.583,3.92,3.92,0,0,0-.8-1.432,1.444,1.444,0,0,0-1.067-.581Q64.269-164.112,64.225-164.109Zm-1.256-12.56q-.6,0-.653.251a4.134,4.134,0,0,0,.15,1.206q.2.9.3,1.558.151.653.251,1.055t.176.653c.049.167.133.259.251.276a.777.777,0,0,0,.276,0,2.086,2.086,0,0,0,.4-.2q.3-.176.5-.276.4-.2.452-.979a4.715,4.715,0,0,0-.175-1.583,3.636,3.636,0,0,0-.779-1.432,1.341,1.341,0,0,0-.991-.541A1.007,1.007,0,0,0,62.969-176.669Zm-55.9,23.941a16,16,0,0,1-4.848-1.03,5.845,5.845,0,0,1-1.381-.753,2.366,2.366,0,0,1-.628-.754,2.38,2.38,0,0,1-.125-1.23q.076-.829.176-1.809t.176-2.99q.076-2.009.025-4.22-.1-2.612-.326-5.3t-.4-4.145q-.176-1.457-.226-2.813a6.022,6.022,0,0,1,.2-2.085,2.162,2.162,0,0,1,.854-1.13q2.813-.351,4.447-.527t4.195-.377a40.555,40.555,0,0,1,4.22-.15q1.658.05,3.492.226a10.637,10.637,0,0,1,3.09.7,5.428,5.428,0,0,1,2.01,1.382,5.792,5.792,0,0,1,1.407,2.336,7.66,7.66,0,0,1,.4,2.687,11.1,11.1,0,0,1-.352,2.437,3.875,3.875,0,0,1-.955,1.784,1.568,1.568,0,0,1-1.457.5,12.972,12.972,0,0,0-4.471.076q-2.361.427-2.462,1.331-.051.552.553.6a12.668,12.668,0,0,0,1.959-.076,15.386,15.386,0,0,1,3.467.176,4.617,4.617,0,0,1,3.994,3.492,13.677,13.677,0,0,1-.176,7.361q-.452,2.059-3.391,3.215A19.609,19.609,0,0,1,14-152.527q-1,.035-1.973.035Q9.484-152.493,7.069-152.728Zm5.05-11.38c-.369,0-.578.084-.628.251a3.066,3.066,0,0,0,.175,1.206q.2.9.3,1.608.1.6.176.954a2.5,2.5,0,0,0,.2.6l.175.352c.033.067.1.092.2.076a.922.922,0,0,0,.251-.076c.067-.033.193-.1.376-.2s.344-.185.478-.251q.4-.151.452-.93a4.345,4.345,0,0,0-.2-1.583,3.92,3.92,0,0,0-.8-1.432,1.446,1.446,0,0,0-1.067-.581Q12.164-164.112,12.119-164.109Zm-1.256-12.56c-.4,0-.619.084-.653.251a4.182,4.182,0,0,0,.151,1.206q.2.9.3,1.558.15.653.251,1.055t.175.653c.05.167.134.259.251.276a.776.776,0,0,0,.276,0,2.059,2.059,0,0,0,.4-.2q.3-.176.5-.276.4-.2.453-.979a4.693,4.693,0,0,0-.176-1.583,3.634,3.634,0,0,0-.778-1.432,1.341,1.341,0,0,0-.991-.541A1.007,1.007,0,0,0,10.863-176.669ZM28.93-152.636q-2.838-.2-3.29-.854-.4-.552-.151-3.416t.5-6.356a36.953,36.953,0,0,0-.352-7.762q-.05-.452-.2-1.356a36.414,36.414,0,0,1-.8-6.757,2.732,2.732,0,0,1,1.659-2.437,10.291,10.291,0,0,1,3.391-.327,8.95,8.95,0,0,1,3.442.478,1.543,1.543,0,0,1,.477.5,3.782,3.782,0,0,1,.377.779c.1.285.218.628.351,1.03s.276.8.427,1.181a9.357,9.357,0,0,0,.653,1.306,13.221,13.221,0,0,0,.929,1.382q4.421,5.477,5.828,3.768a1.3,1.3,0,0,0,.15-.879,2.088,2.088,0,0,0-.627-.8q-.528-.478-1.081-.9a9.3,9.3,0,0,1-1.205-1.156A6.108,6.108,0,0,1,38.4-176.7a8.211,8.211,0,0,1-.93-3.014,2.44,2.44,0,0,1,1.081-1.759q1.054-.753,5.753-.527t5.35.93a1.517,1.517,0,0,1,.3.954,15.089,15.089,0,0,1-.025,1.91q-.076,1.206-.2,2.512t-.276,3.24q-.151,1.935-.2,3.643-.1,2.712.076,6.305t.276,5.175a14.092,14.092,0,0,1-.15,3.14q-.653,2.009-6.532.954a4.561,4.561,0,0,1-1.658-.778,10.5,10.5,0,0,1-1.582-1.331,21.22,21.22,0,0,1-1.633-1.985q-.954-1.281-1.456-2.035t-1.357-2.11q-1.507-2.261-2.613-2.21-.753.05-.351,1.206a3.733,3.733,0,0,0,.4.7q.352.554,1.934,2.462a32.342,32.342,0,0,1,2.437,3.265,2.5,2.5,0,0,1,.553,2.111q-.3.7-3.064,1.105a25.759,25.759,0,0,1-3.715.268Q29.877-152.569,28.93-152.636Z" transform="translate(173.635 30.055)"/></g></svg>