<svg xmlns="http://www.w3.org/2000/svg" xmlns:xlink="http://www.w3.org/1999/xlink" width="78.219" height="78.216" viewBox="0 0 78.219 78.216"><defs><style>.a{stroke:#291f36;stroke-width:2px;fill:url(#a);}.b{filter:url(#c);}</style><linearGradient id="a" x1="0.5" y1="0.798" x2="0.5" y2="0.052" gradientUnits="objectBoundingBox"><stop offset="0" stop-color="#ff6002"/><stop offset="1" stop-color="#c22de1"/></linearGradient><filter id="c" x="0" y="0" width="78.219" height="78.216" filterUnits="userSpaceOnUse"><feOffset dx="-2" dy="2" input="SourceAlpha"/><feGaussianBlur stdDeviation="1" result="d"/><feFlood flood-opacity="0.541"/><feComposite operator="in" in2="d"/><feComposite in="SourceGraphic"/></filter></defs><g transform="translate(-61.828 -18.647)"><path class="a" d="M25,3a5.5,5.5,0,0,0-2.023.39L7.537,9.461A1.332,1.332,0,0,0,7.5,11.928l16.414,6.957a2.787,2.787,0,0,0,2.163,0L36,11.1c1.1-.466,5.536-2.166,4.425-2.6l-13.4-5.113A5.5,5.5,0,0,0,25,3Zm0,5.5c2.026,0,3.667.821,3.667,1.833S27.025,12.168,25,12.168s-3.667-.821-3.667-1.833S22.974,8.5,25,8.5ZM4.622,14.936A1.815,1.815,0,0,0,3,16.741V35.16a5.467,5.467,0,0,0,3.061,4.927s8.489,4.178,13.506,6.639a2.5,2.5,0,0,0,3.6-2.252V25.1a3.849,3.849,0,0,0-2.345-3.545l-15.3-6.481A1.791,1.791,0,0,0,4.622,14.936ZM26.833,29.255c-.48,2.079,0,12.519,0,15.218a2.5,2.5,0,0,0,3.6,2.256c5.018-2.46,13.506-6.639,13.506-6.639A5.475,5.475,0,0,0,47,35.16c.048-.231-6.2,1.319-7.333-.745-.865-1.579-6.919-2.422-7.945-4.386C30.393,27.474,33.469,24.587,26.833,29.255Zm-18.7-9.227a1.259,1.259,0,0,1,.369.061c1.012.317,1.833,1.807,1.833,3.327S9.512,25.908,8.5,25.589s-1.833-1.807-1.833-3.326C6.667,20.932,7.3,20.021,8.131,20.028Zm26.035,9.227ZM41.5,36.588c-1.012.317-1.833-.655-1.833-2.173S42.511,36.271,41.5,36.588ZM15.464,34.694a1.259,1.259,0,0,1,.369.061c1.012.317,1.833,1.807,1.833,3.327s-.821,2.492-1.833,2.173S14,38.448,14,36.929C14,35.6,14.629,34.688,15.464,34.694Zm19.071,0C35.37,34.688,36,35.6,36,36.929c0,1.518-.821,3.009-1.833,3.326s-1.833-.655-1.833-2.173.821-3.008,1.833-3.327A1.259,1.259,0,0,1,34.535,34.694Z" transform="translate(59.95 46.561)"/><g class="b" transform="matrix(1, 0, 0, 1, 61.83, 18.65)"><path class="a" d="M27.779,3a6.191,6.191,0,0,0-2.279.44L8.11,10.278a1.5,1.5,0,0,0-.036,2.779l18.488,7.836a3.139,3.139,0,0,0,2.436,0l18.488-7.836a1.5,1.5,0,0,0-.036-2.779L30.058,3.438A6.191,6.191,0,0,0,27.779,3Zm0,6.2c2.282,0,4.13.925,4.13,2.065s-1.848,2.065-4.13,2.065-4.13-.925-4.13-2.065S25.5,9.2,27.779,9.2ZM4.827,16.444A2.044,2.044,0,0,0,3,18.477V39.223a6.158,6.158,0,0,0,3.448,5.55s9.561,4.706,15.213,7.477a2.816,2.816,0,0,0,4.053-2.537V27.89A4.335,4.335,0,0,0,23.073,23.9L5.835,16.6A2.017,2.017,0,0,0,4.827,16.444Zm45.9,0a2.017,2.017,0,0,0-1.008.153L32.486,23.9a4.335,4.335,0,0,0-2.642,3.993V49.713A2.818,2.818,0,0,0,33.9,52.254c5.652-2.771,15.213-7.477,15.213-7.477a6.166,6.166,0,0,0,3.448-5.554V18.477A2.044,2.044,0,0,0,50.731,16.444ZM8.779,22.179a1.418,1.418,0,0,1,.415.069c1.14.357,2.065,2.035,2.065,3.747s-.925,2.807-2.065,2.448S7.13,26.408,7.13,24.7C7.13,23.2,7.839,22.172,8.779,22.179Zm38,.742c.941-.007,1.649,1.02,1.649,2.517,0,1.71-.925,3.39-2.065,3.747S44.3,28.446,44.3,26.737s.925-3.387,2.065-3.747A1.411,1.411,0,0,1,46.779,22.921Zm-8.26,3.388c.941-.007,1.649,1.021,1.649,2.517,0,1.71-.925,3.389-2.065,3.747s-2.065-.738-2.065-2.448.925-3.388,2.065-3.747A1.418,1.418,0,0,1,38.519,26.309Zm8.26,8.26c.941-.007,1.649,1.021,1.649,2.517,0,1.71-.925,3.389-2.065,3.747S44.3,40.094,44.3,38.384s.925-3.388,2.065-3.747A1.418,1.418,0,0,1,46.779,34.569ZM17.039,38.7a1.418,1.418,0,0,1,.415.069c1.14.357,2.065,2.035,2.065,3.747s-.925,2.807-2.065,2.448-2.065-2.035-2.065-3.747C15.39,39.718,16.1,38.691,17.039,38.7Zm21.48,0c.941-.007,1.649,1.021,1.649,2.517,0,1.71-.925,3.389-2.065,3.747s-2.065-.738-2.065-2.448.925-3.388,2.065-3.747A1.418,1.418,0,0,1,38.519,38.7Z" transform="matrix(0.6, 0.8, -0.8, 0.6, 46.58, -1.8)"/></g></g></svg>