<svg xmlns="http://www.w3.org/2000/svg" xmlns:xlink="http://www.w3.org/1999/xlink" width="1267.867" height="556.046" viewBox="0 0 1267.867 556.046"><defs><style>.a{opacity:0.7;}.b{opacity:0.875;}.c{fill:url(#a);}.d{fill:url(#b);}.e{fill:url(#c);}.f{fill:url(#d);}.g{fill:url(#e);}.h{fill:url(#f);}.i{fill:#ff7e00;}.j{fill:#ff8100;}.k{fill:#ff8400;}.l{fill:#f80;}.m{fill:#ff8c00;}.n{fill:#ff9000;}.o{fill:#ff9300;}.p{fill:#ff9700;}.q{fill:#ff9b00;}.r{fill:#ff9e00;}.s{fill:#ffa200;}.t{fill:#ffa600;}.u{fill:#fa0;}.v{fill:#ffae00;}.w{fill:#ffb100;}.x{fill:#ffb500;}.y{fill:#ffb900;}.z{fill:#ffbc00;}.aa{fill:#ffc000;}.ab{fill:#ffc500;}.ac{fill:#ffc800;}.ad{fill:#fc0;}.ae{fill:#ffd000;}.af{fill:#ffd300;}.ag{fill:gold;}.ah{fill:#ffdb00;}.ai{fill:#ffe000;}.aj{fill:#ffe400;}.ak{fill:#ffe700;}.al{fill:#ffeb00;}.am{fill:url(#g);}.an{fill:url(#h);}.ao{fill:url(#i);}.ap{fill:url(#j);}.aq{fill:url(#k);}.ar{fill:url(#l);}.as{fill:url(#m);}.at{fill:url(#n);}.au{fill:url(#o);}.av{fill:url(#p);}.aw{fill:url(#q);}.ax{fill:url(#r);}.ay{fill:url(#s);}.az{fill:url(#t);}.ba{fill:url(#u);}.bb{fill:url(#v);}.bc{fill:url(#w);}.bd{fill:url(#x);}.be{fill:url(#y);}.bf{opacity:0.878;}.bg{opacity:0.993;}.bh{opacity:0.947;}</style><radialGradient id="a" cx="-0.299" cy="-0.451" r="3.119" gradientTransform="matrix(-0.845, -0.092, -0.078, 0.996, 6.366, 0.317)" gradientUnits="objectBoundingBox"><stop offset="0" stop-color="#934a0c"/><stop offset="0.106" stop-color="#ff7e00"/><stop offset="0.186" stop-color="#ffeb00"/><stop offset="0.234" stop-color="#ffef45"/><stop offset="0.284" stop-color="#fff287"/><stop offset="0.298" stop-color="#fff27e"/><stop offset="0.322" stop-color="#fff065"/><stop offset="0.351" stop-color="#ffee3c"/><stop offset="0.386" stop-color="#ffeb04"/><stop offset="0.388" stop-color="#ffeb00"/><stop offset="0.545" stop-color="#ff7e00"/><stop offset="0.93" stop-color="#6d3913"/></radialGradient><linearGradient id="b" x1="2.543" y1="-0.031" x2="2.932" y2="0.512" gradientUnits="objectBoundingBox"><stop offset="0" stop-color="#993712"/><stop offset="1" stop-color="#fc520e"/></linearGradient><linearGradient id="c" x1="3.082" y1="-0.189" x2="2.506" y2="1.583" gradientUnits="objectBoundingBox"><stop offset="0" stop-color="#ffef56"/><stop offset="1" stop-color="#fc6115"/></linearGradient><radialGradient id="d" cx="1.3" cy="-0.479" r="3.18" gradientTransform="matrix(0.831, -0.092, 0.077, 0.996, 0.265, 0.126)" xlink:href="#a"/><linearGradient id="e" x1="0.12" y1="-0.031" x2="0.509" y2="0.512" xlink:href="#b"/><linearGradient id="f" x1="0.724" y1="-0.189" x2="0.148" y2="1.582" xlink:href="#c"/><linearGradient id="g" x1="10.782" y1="4.923" x2="12.501" y2="4.825" gradientUnits="objectBoundingBox"><stop offset="0.188" stop-color="#1e380b"/><stop offset="0.598" stop-color="#97ca00"/><stop offset="0.648" stop-color="#8fc001"/><stop offset="0.733" stop-color="#78a504"/><stop offset="0.843" stop-color="#537908"/><stop offset="0.927" stop-color="#33530c"/></linearGradient><linearGradient id="h" x1="8.273" y1="7.265" x2="9.705" y2="7.931" xlink:href="#g"/><linearGradient id="i" x1="16.248" y1="5.369" x2="18.565" y2="4.968" xlink:href="#g"/><linearGradient id="j" x1="-13.844" y1="-4.263" x2="-12.664" y2="-4.234" gradientUnits="objectBoundingBox"><stop offset="0" stop-color="#8e0000"/><stop offset="0.293" stop-color="red"/><stop offset="0.428" stop-color="#ea0000"/><stop offset="0.708" stop-color="#b40000"/><stop offset="1" stop-color="#760000"/></linearGradient><linearGradient id="k" x1="12.031" y1="-18.849" x2="12.928" y2="-18.771" xlink:href="#j"/><linearGradient id="l" x1="-41.767" y1="-5.609" x2="-40.482" y2="-5.596" xlink:href="#j"/><linearGradient id="m" x1="11.328" y1="-6.15" x2="12.089" y2="-6.515" gradientUnits="objectBoundingBox"><stop offset="0.293" stop-color="red"/><stop offset="0.428" stop-color="#ea0000"/><stop offset="0.708" stop-color="#b40000"/><stop offset="1" stop-color="#760000"/></linearGradient><linearGradient id="n" x1="-3.877" y1="0.524" x2="-2.685" y2="1.684" xlink:href="#g"/><linearGradient id="o" x1="-0.021" y1="0.247" x2="0.911" y2="0.7" gradientUnits="objectBoundingBox"><stop offset="0.108" stop-color="#8e0000"/><stop offset="0.625" stop-color="red"/><stop offset="0.696" stop-color="#ea0000"/><stop offset="0.845" stop-color="#b40000"/><stop offset="1" stop-color="#760000"/></linearGradient><linearGradient id="p" x1="-0.021" y1="0.247" x2="0.91" y2="0.7" xlink:href="#o"/><linearGradient id="q" x1="-0.021" y1="0.247" x2="0.91" y2="0.699" xlink:href="#o"/><linearGradient id="r" x1="-0.021" y1="0.247" x2="0.91" y2="0.7" xlink:href="#o"/><linearGradient id="s" x1="-0.021" y1="0.247" x2="0.911" y2="0.7" xlink:href="#o"/><linearGradient id="t" x1="-0.021" y1="0.247" x2="0.911" y2="0.7" xlink:href="#o"/><linearGradient id="u" x1="0.628" y1="-1.066" x2="0.426" y2="1.402" xlink:href="#g"/><linearGradient id="v" x1="-0.057" y1="-0.384" x2="0.852" y2="1.059" xlink:href="#g"/><linearGradient id="w" x1="-0.156" y1="-0.63" x2="1.062" y2="1.466" xlink:href="#g"/><linearGradient id="x" x1="-0.44" y1="0.048" x2="1.11" y2="0.793" xlink:href="#g"/><linearGradient id="y" x1="-0.44" y1="0.049" x2="1.109" y2="0.793" xlink:href="#g"/></defs><g class="a" transform="translate(-15.161 -184.888)"><g class="b" transform="translate(667.852 671.382) rotate(131)"><path class="c" d="M49.153,27.552a24.484,24.484,0,0,1-5.426,13.262c-4.146,2-13.528,1.13-23.648-2.479C9.577,34.567,1.581,29.05,0,24.817c0-.594.035-1.186.091-1.8.042-.441.081-.883.146-1.3a24.632,24.632,0,1,1,48.917,5.836Z" transform="translate(2.605 0)"/><path class="d" d="M44.361,19.348a3.648,3.648,0,0,1-2,2.045c-4,2.01-13.04,1.174-22.78-2.4C9.466,15.261,1.793,9.773.276,5.545A3.532,3.532,0,0,1,.165,3.109a2.466,2.466,0,0,1,.348-.661C2.9-1.148,13.432-.759,24.948,3.464c11.146,4.1,19.347,10.379,19.571,14.685a2.96,2.96,0,0,1-.158,1.2Z" transform="translate(2.375 17.839)"/><path class="e" d="M19.981,20.172C9.839,16.426,1.936,10.874.314,6.36a4.129,4.129,0,0,1-.1-2.878A2.878,2.878,0,0,1,.617,2.7c2.577-3.887,13.4-3.547,25.158.777C37.105,7.65,45.506,14.055,45.753,18.7a3.552,3.552,0,0,1-.19,1.443h0a4.25,4.25,0,0,1-2.306,2.395A14.394,14.394,0,0,1,37,23.665a52.116,52.116,0,0,1-17.023-3.492ZM44.4,19.748a2.313,2.313,0,0,0,.126-.967c-.183-3.552-7.4-9.811-19.167-14.138C13.008.1,3.606.45,1.621,3.43a1.766,1.766,0,0,0-.247.493A2.942,2.942,0,0,0,1.48,5.951c1.48,4.129,9.269,9.508,18.935,13.072,9.372,3.441,18.333,4.415,22.3,2.422a3.061,3.061,0,0,0,1.687-1.69Z" transform="translate(1.758 17.273)"/><path class="f" d="M.092,26.744A24.7,24.7,0,0,0,3.274,36.78a24.345,24.345,0,0,0,2.22,3.236c4.149,2,13.531,1.13,23.648-2.479,10.5-3.769,18.5-9.286,20.079-13.518,0-.594-.035-1.186-.091-1.8-.042-.441-.081-.883-.146-1.3A24.632,24.632,0,0,0,.092,26.744Z" transform="translate(43.641 0.808)"/><path class="g" d="M.167,19.348a3.633,3.633,0,0,0,2,2.045c4,2.01,13.042,1.174,22.78-2.4,10.112-3.732,17.785-9.22,19.3-13.447a3.544,3.544,0,0,0,.109-2.437,2.466,2.466,0,0,0-.348-.661C41.63-1.148,31.093-.759,19.578,3.464,8.432,7.563.231,13.842.009,18.149A2.91,2.91,0,0,0,.167,19.348Z" transform="translate(48.573 17.839)"/><path class="h" d="M8.76,23.665A14.374,14.374,0,0,1,2.508,22.54,4.255,4.255,0,0,1,.2,20.145h0A3.6,3.6,0,0,1,.01,18.7C.256,14.055,8.642,7.65,19.988,3.482,31.75-.842,42.568-1.182,45.145,2.7a2.878,2.878,0,0,1,.407.777,4.129,4.129,0,0,1-.1,2.878c-1.62,4.511-9.523,10.063-19.667,13.812A52.116,52.116,0,0,1,8.76,23.665Zm-7.4-3.922a3.068,3.068,0,0,0,1.687,1.69c3.968,1.993,12.924,1.019,22.3-2.422C35.013,15.441,42.8,10.062,44.282,5.938a2.942,2.942,0,0,0,.106-2.027,1.761,1.761,0,0,0-.247-.493C42.153.426,32.751.088,20.4,4.631,8.64,8.957,1.413,15.217,1.235,18.769a2.314,2.314,0,0,0,.126.967Z" transform="translate(47.958 17.278)"/><path class="i" d="M.9.792,3.774,1.8,6.235,0,6.166,3.049,8.637,4.832l-2.92.878-.932,2.9L3.049,6.107,0,6.114,1.847,3.69Z" transform="translate(24.848 68.169)"/><path class="j" d="M.878.774l2.814.987L6.1,0,6.033,2.982l2.42,1.746L5.6,5.586,4.681,8.425l-1.7-2.452L0,5.984,1.808,3.611Z" transform="translate(24.933 68.258)"/><path class="k" d="M.856.76l2.755.962L5.964,0,5.9,2.918,8.265,4.625l-2.794.839L4.578,8.24l-1.662-2.4L0,5.85,1.766,3.529Z" transform="translate(25.02 68.346)"/><path class="l" d="M.839.742l2.691.942L5.831,0,5.767,2.851l2.311,1.67-2.73.819L4.474,8.053,2.851,5.71,0,5.72,1.729,3.451Z" transform="translate(25.105 68.435)"/><path class="m" d="M.819.723l2.627.92L5.695,0,5.631,2.782,7.89,4.412l-2.669.8L4.371,7.865,2.785,5.577,0,5.584,1.687,3.369Z" transform="translate(25.193 68.526)"/><path class="n" d="M.8.705l2.568.9L5.562,0,5.5,2.718,7.7,4.309l-2.6.782L4.267,7.678,2.72,5.443,0,5.451,1.648,3.29Z" transform="translate(25.278 68.615)"/><path class="o" d="M.779.688l2.5.878L5.424,0,5.364,2.651,7.515,4.205l-2.54.762L4.163,7.493,2.651,5.313,0,5.32,1.606,3.209Z" transform="translate(25.366 68.704)"/><path class="p" d="M.762.673,3.2,1.527,5.29,0,5.231,2.585,7.33,4.1l-2.479.745L4.06,7.306,2.587,5.179,0,5.187,1.569,3.13Z" transform="translate(25.451 68.793)"/><path class="q" d="M.74.656l2.38.831L5.155,0,5.1,2.521,7.14,4l-2.415.725-.77,2.4L2.521,5.049,0,5.056,1.527,3.051Z" transform="translate(25.538 68.882)"/><path class="r" d="M.723.639l2.316.811L5.019,0,4.965,2.454l1.99,1.438L4.6,4.6,3.853,6.933l-1.4-2.018L0,4.923,1.487,2.97Z" transform="translate(25.624 68.97)"/><path class="s" d="M.7.619l2.254.789L4.884,0,4.829,2.387l1.936,1.4-2.286.688-.73,2.274L2.388,4.782,0,4.79l1.448-1.9Z" transform="translate(25.711 69.062)"/><path class="t" d="M.683.6l2.193.767L4.75,0,4.7,2.321,6.58,3.68l-2.225.668-.71,2.21L2.323,4.649,0,4.657,1.408,2.809Z" transform="translate(25.797 69.15)"/><path class="u" d="M.663.587l2.129.745L4.615,0,4.563,2.254l1.83,1.322-2.161.649L3.542,6.373,2.257,4.519,0,4.523,1.366,2.73Z" transform="translate(25.884 69.239)"/><path class="v" d="M.644.57l2.067.723L4.479,0,4.43,2.19,6.206,3.47l-2.1.631L3.438,6.186,2.19,4.385,0,4.393,1.327,2.649Z" transform="translate(25.97 69.328)"/><path class="w" d="M.624.552l2.005.7L4.343,0,4.3,2.124,6.018,3.367l-2.035.612L3.332,6,2.124,4.255,0,4.26,1.287,2.57Z" transform="translate(26.057 69.417)"/><path class="x" d="M.607.535l1.941.681L4.21,0,4.163,2.057l1.67,1.206L3.86,3.855,3.231,5.813,2.059,4.121,0,4.129,1.248,2.491Z" transform="translate(26.142 69.506)"/><path class="y" d="M.585.518l1.882.659L4.072,0,4.028,1.993,5.643,3.159l-1.907.572-.612,1.9L1.99,3.991,0,4,1.206,2.412Z" transform="translate(26.23 71.103)"/><path class="z" d="M.567.5l1.818.636L3.939,0,3.9,1.924,5.458,3.051l-1.845.555L3.024,5.438l-1.1-1.583L0,3.862,1.167,2.328Z" transform="translate(26.316 71.201)"/><path class="aa" d="M.545.483,2.3,1.1,3.8,0,3.761,1.86,5.268,2.947l-1.781.535-.57,1.771L1.86,3.724,0,3.729l1.127-1.48Z" transform="translate(26.403 71.297)"/><path class="ab" d="M.528.466l1.694.592L3.67,0,3.628,1.793,5.083,2.844l-1.719.515L2.817,5.066,1.8,3.591,0,3.6,1.088,2.17Z" transform="translate(26.489 71.392)"/><path class="ac" d="M.508.449l1.63.57L3.532,0,3.495,1.726,4.9,2.738l-1.655.5-.53,1.645L1.726,3.46,0,3.465,1.046,2.092Z" transform="translate(26.576 71.488)"/><path class="ad" d="M.488.432l1.569.55L3.4,0,3.362,1.662l1.347.972-1.591.478L2.609,4.694,1.662,3.327,0,3.332,1.009,2.01Z" transform="translate(26.662 71.583)"/><path class="ae" d="M.469.414,1.976.942,3.263,0,3.226,1.6l1.295.935-1.529.459L2.5,4.509,1.6,3.2,0,3.2l.967-1.27Z" transform="translate(26.75 71.679)"/><path class="af" d="M.451.4,1.894.9,3.13,0,3.1,1.529l1.238.9-1.465.441L2.4,4.321,1.529,3.063,0,3.068.927,1.852Z" transform="translate(26.835 71.774)"/><path class="ag" d="M.429.38,1.81.863,2.992,0,2.96,1.463l1.186.856-1.4.422L2.3,4.134l-.834-1.2L0,2.935.885,1.771Z" transform="translate(26.923 70.31)"/><path class="ah" d="M.412.363l1.32.461L2.859,0,2.827,1.4l1.135.819-1.339.4L2.2,3.946,1.4,2.8,0,2.8.848,1.689Z" transform="translate(27.008 70.398)"/><path class="ai" d="M.392.345,1.648.787,2.723,0l-.03,1.332,1.078.779L2.5,2.494,2.089,3.761l-.757-1.1L0,2.669.807,1.611Z" transform="translate(27.096 70.487)"/><path class="aj" d="M.372.328,1.566.747,2.587,0,2.56,1.265l1.026.74L2.373,2.37l-.387,1.2-.72-1.041L0,2.538.767,1.532Z" transform="translate(27.182 70.576)"/><path class="ak" d="M.353.313,1.485.708,2.452,0,2.424,1.2l.972.7-1.147.345L1.882,3.389,1.2,2.4,0,2.4l.725-.952Z" transform="translate(27.269 70.665)"/><path class="al" d="M.333.3,1.4.671,2.318,0,2.294,1.135l.918.663-1.085.326L1.778,3.2l-.644-.932L0,2.274l.688-.9Z" transform="translate(27.355 70.754)"/><g transform="translate(62.118 61.188)"><path class="i" d="M.9.792,3.774,1.8,6.235,0,6.166,3.049,8.637,4.834l-2.92.876-.932,2.9L3.049,6.107,0,6.114,1.847,3.69Z"/><path class="j" d="M.878.777l2.814.984L6.1,0,6.033,2.982l2.42,1.746L5.6,5.586,4.681,8.425l-1.7-2.452L0,5.984,1.808,3.611Z" transform="translate(0.089 0.089)"/><path class="k" d="M.856.76l2.755.962L5.964,0,5.9,2.918,8.265,4.625l-2.794.839L4.578,8.24l-1.662-2.4L0,5.85,1.766,3.529Z" transform="translate(0.18 0.178)"/><path class="l" d="M.839.74l2.691.942L5.831,0,5.767,2.849l2.311,1.67-2.73.819L4.474,8.05,2.851,5.707,0,5.717,1.729,3.448Z" transform="translate(0.269 0.269)"/><path class="m" d="M.819.723l2.627.92L5.695,0,5.631,2.782,7.89,4.412l-2.669.8L4.371,7.865,2.785,5.577,0,5.584,1.687,3.369Z" transform="translate(0.36 0.358)"/><path class="n" d="M.8.705l2.568.9L5.562,0,5.5,2.718,7.7,4.309l-2.6.782L4.267,7.678,2.72,5.443,0,5.453,1.648,3.29Z" transform="translate(0.449 0.446)"/><path class="o" d="M.779.691l2.5.876L5.424,0,5.364,2.651,7.515,4.205l-2.54.762L4.163,7.493,2.651,5.313,0,5.32,1.606,3.209Z" transform="translate(0.54 0.535)"/><path class="p" d="M.762.673,3.2,1.527,5.29,0,5.231,2.587,7.33,4.1l-2.479.745L4.06,7.306,2.587,5.18,0,5.187,1.569,3.13Z" transform="translate(0.629 0.624)"/><path class="q" d="M.74.656l2.38.831L5.155,0,5.1,2.521,7.14,4l-2.412.725-.772,2.4L2.521,5.049,0,5.056,1.527,3.051Z" transform="translate(0.72 0.713)"/><path class="r" d="M.723.639l2.316.811L5.019,0,4.965,2.454l1.99,1.438L4.6,4.6,3.853,6.933l-1.4-2.018L0,4.923,1.487,2.972Z" transform="translate(0.809 0.802)"/><path class="s" d="M.7.619l2.254.789L4.884,0,4.829,2.388l1.936,1.4-2.286.688-.73,2.274L2.387,4.782,0,4.79l1.448-1.9Z" transform="translate(0.9 0.893)"/><path class="t" d="M.683.6l2.193.77L4.75,0,4.7,2.321,6.58,3.68l-2.225.668-.71,2.21L2.323,4.649,0,4.657,1.408,2.809Z" transform="translate(0.989 0.982)"/><path class="u" d="M.663.587l2.129.745L4.615,0,4.563,2.254l1.83,1.322-2.161.649L3.542,6.373,2.257,4.518,0,4.526l1.366-1.8Z" transform="translate(1.08 1.07)"/><path class="v" d="M.644.57l2.069.723L4.479,0,4.43,2.19,6.206,3.473l-2.1.629L3.438,6.186,2.19,4.385,0,4.393,1.327,2.651Z" transform="translate(1.169 1.159)"/><path class="w" d="M.624.552l2.005.7L4.343,0,4.3,2.124,6.018,3.367l-2.035.612L3.332,6,2.124,4.255,0,4.26,1.287,2.57Z" transform="translate(1.26 1.248)"/><path class="x" d="M.607.535l1.941.681L4.21,0,4.163,2.059l1.67,1.2L3.86,3.855,3.231,5.813,2.059,4.121,0,4.129,1.248,2.491Z" transform="translate(1.349 1.337)"/><path class="y" d="M.585.515l1.882.659L4.072,0,4.028,1.99,5.643,3.157l-1.907.572-.612,1.9L1.99,3.988,0,3.993,1.206,2.41Z" transform="translate(1.44 1.428)"/><path class="z" d="M.567.5l1.818.636L3.939,0,3.9,1.924,5.458,3.051l-1.845.555L3.024,5.438l-1.1-1.583L0,3.862,1.167,2.328Z" transform="translate(1.529 1.517)"/><path class="aa" d="M.548.483,2.3,1.1,3.8,0,3.761,1.86,5.268,2.947l-1.781.535-.57,1.771L1.86,3.724,0,3.729l1.127-1.48Z" transform="translate(1.62 1.606)"/><path class="ab" d="M.528.466l1.694.592L3.67,0,3.628,1.793,5.083,2.844l-1.719.515L2.817,5.066,1.8,3.591,0,3.6,1.088,2.17Z" transform="translate(1.709 1.694)"/><path class="ac" d="M.508.449l1.63.572L3.532,0,3.495,1.726,4.9,2.738l-1.655.5-.53,1.645L1.726,3.46,0,3.465,1.046,2.092Z" transform="translate(1.8 1.783)"/><path class="ad" d="M.488.432l1.569.55L3.4,0,3.362,1.662l1.347.972-1.591.478L2.609,4.694,1.662,3.327,0,3.332,1.009,2.01Z" transform="translate(1.889 1.872)"/><path class="ae" d="M.469.417,1.976.942,3.263,0,3.226,1.6l1.295.935-1.529.459L2.5,4.509,1.6,3.2,0,3.2l.967-1.27Z" transform="translate(1.981 1.961)"/><path class="af" d="M.451.4,1.894.9,3.13,0,3.1,1.529l1.238.9-1.465.439L2.4,4.319,1.529,3.061,0,3.066.927,1.85Z" transform="translate(2.069 2.052)"/><path class="ag" d="M.429.38,1.81.863,2.992,0,2.96,1.463l1.186.856-1.4.422L2.3,4.134l-.834-1.2L0,2.935.885,1.771Z" transform="translate(2.161 2.141)"/><path class="ah" d="M.412.363l1.32.461L2.859,0,2.827,1.4l1.135.819-1.339.4L2.2,3.946,1.4,2.8,0,2.8.848,1.69Z" transform="translate(2.249 2.23)"/><path class="ai" d="M.392.345,1.648.787,2.723,0l-.03,1.332,1.078.779L2.5,2.494,2.089,3.761l-.757-1.1L0,2.671.807,1.611Z" transform="translate(2.341 2.318)"/><path class="aj" d="M.372.328,1.566.747,2.587,0,2.56,1.265l1.026.74L2.373,2.37l-.387,1.2-.72-1.041L0,2.538.767,1.532Z" transform="translate(2.429 2.407)"/><path class="ak" d="M.353.313,1.485.708,2.452,0,2.424,1.2l.972.7-1.147.345L1.882,3.389,1.2,2.4,0,2.4l.725-.952Z" transform="translate(2.521 2.496)"/><path class="al" d="M.333.3,1.4.671,2.318,0,2.294,1.135l.918.663-1.085.326L1.778,3.2l-.644-.932L0,2.274l.688-.9Z" transform="translate(2.609 2.585)"/></g><g transform="translate(22.324 40.488)"><path class="i" d="M.9.792,3.776,1.8,6.235,0,6.169,3.049,8.64,4.832,5.72,5.71l-.932,2.9L3.051,6.1,0,6.114,1.847,3.69Z"/><path class="j" d="M.876.774l2.817.987L6.1,0,6.033,2.982l2.42,1.746-2.859.858L4.681,8.425l-1.7-2.452L0,5.984,1.808,3.608Z" transform="translate(0.091 0.089)"/><path class="k" d="M.858.757l2.753.964L5.966,0,5.9,2.915,8.265,4.625l-2.792.839-.9,2.777-1.66-2.4L0,5.85,1.768,3.529Z" transform="translate(0.18 0.178)"/><path class="l" d="M.839.742l2.691.942L5.831,0,5.767,2.851,8.078,4.518l-2.73.821L4.474,8.053,2.851,5.71,0,5.717,1.727,3.451Z" transform="translate(0.271 0.266)"/><path class="m" d="M.819.725l2.629.92L5.695,0,5.633,2.785,7.89,4.415l-2.666.8L4.371,7.868,2.785,5.577,0,5.586,1.687,3.372Z" transform="translate(0.36 0.355)"/><path class="n" d="M.8.705l2.565.9L5.559,0,5.5,2.718,7.7,4.309l-2.6.782L4.267,7.678,2.718,5.443,0,5.451,1.648,3.288Z" transform="translate(0.451 0.446)"/><path class="o" d="M.782.688l2.5.878L5.426,0,5.367,2.651,7.518,4.2l-2.54.765L4.163,7.493,2.654,5.31,0,5.32,1.608,3.209Z" transform="translate(0.54 0.535)"/><path class="p" d="M.76.671,3.2,1.527,5.29,0,5.231,2.585,7.328,4.1l-2.476.745L4.06,7.306,2.587,5.18,0,5.187,1.566,3.13Z" transform="translate(0.631 0.624)"/><path class="q" d="M.742.656l2.378.831L5.155,0,5.1,2.521,7.143,4l-2.415.725-.772,2.4L2.521,5.046,0,5.056,1.529,3.051Z" transform="translate(0.72 0.713)"/><path class="r" d="M.72.639l2.318.811L5.019,0,4.965,2.454,6.953,3.892,4.6,4.6l-.75,2.336-1.4-2.018L0,4.923,1.487,2.97Z" transform="translate(0.811 0.802)"/><path class="s" d="M.7.622l2.254.789L4.886,0,4.832,2.388l1.936,1.4-2.286.688L3.749,6.748,2.39,4.782,0,4.79l1.448-1.9Z" transform="translate(0.9 0.89)"/><path class="t" d="M.683.6l2.19.767L4.748,0,4.7,2.323,6.58,3.682l-2.225.668-.71,2.21L2.321,4.652,0,4.659,1.406,2.812Z" transform="translate(0.992 0.979)"/><path class="u" d="M.663.585l2.131.747L4.615,0,4.565,2.254,6.393,3.576l-2.161.649L3.542,6.371,2.257,4.518,0,4.523,1.369,2.73Z" transform="translate(1.08 1.07)"/><path class="v" d="M.644.57l2.067.723L4.479,0,4.43,2.19,6.206,3.47l-2.1.631L3.438,6.186,2.19,4.385,0,4.393,1.327,2.649Z" transform="translate(1.172 1.159)"/><path class="w" d="M.626.552l2,.7L4.346,0,4.3,2.124,6.018,3.367l-2.032.612L3.335,6,2.126,4.255,0,4.26,1.287,2.57Z" transform="translate(1.26 1.248)"/><path class="x" d="M.6.535l1.944.681L4.208,0,4.163,2.057,5.831,3.263,3.86,3.855,3.229,5.813,2.057,4.121,0,4.129,1.246,2.491Z" transform="translate(1.352 1.337)"/><path class="y" d="M.587.518l1.879.659L4.075,0,4.03,1.993,5.646,3.157l-1.909.575L3.127,5.626,1.993,3.991,0,4,1.209,2.41Z" transform="translate(1.44 1.426)"/><path class="z" d="M.565.5l1.818.636L3.939,0,3.894,1.926,5.456,3.053l-1.845.555L3.021,5.441l-1.1-1.583L0,3.862,1.167,2.331Z" transform="translate(1.532 1.514)"/><path class="aa" d="M.548.483,2.3,1.1,3.806,0,3.764,1.857l1.507,1.09L3.49,3.483,2.92,5.251,1.86,3.724,0,3.729l1.127-1.48Z" transform="translate(1.62 1.606)"/><path class="ab" d="M.528.466l1.692.592L3.668,0,3.628,1.793,5.083,2.841l-1.719.518-.55,1.707L1.793,3.591,0,3.6,1.088,2.17Z" transform="translate(1.712 1.694)"/><path class="ac" d="M.508.449l1.633.57L3.534,0,3.495,1.726,4.9,2.738l-1.655.5L2.713,4.879,1.729,3.46,0,3.465,1.048,2.089Z" transform="translate(1.8 1.783)"/><path class="ad" d="M.488.432l1.569.55L3.4,0,3.362,1.662l1.347.972-1.593.478L2.607,4.694,1.662,3.327,0,3.332,1.006,2.01Z" transform="translate(1.892 1.872)"/><path class="ae" d="M.471.414l1.5.528L3.263,0,3.229,1.6l1.292.935-1.527.459L2.506,4.506,1.6,3.2,0,3.2l.967-1.27Z" transform="translate(1.981 1.961)"/><path class="af" d="M.449.4,1.894.9,3.127,0,3.093,1.529l1.241.9-1.465.441L2.4,4.321,1.529,3.063,0,3.068.927,1.852Z" transform="translate(2.072 2.05)"/><path class="ag" d="M.432.382,1.813.866,2.994,0,2.96,1.465l1.189.856-1.4.422L2.3,4.134l-.834-1.2L0,2.935.888,1.771Z" transform="translate(2.161 2.138)"/><path class="ah" d="M.409.363l1.32.461L2.859,0,2.827,1.4l1.132.819-1.337.4L2.193,3.946,1.4,2.8,0,2.8.846,1.69Z" transform="translate(2.252 2.23)"/><path class="ai" d="M.392.345,1.65.784,2.723,0l-.03,1.329,1.08.779L2.5,2.494,2.092,3.759l-.76-1.093L0,2.669.807,1.611Z" transform="translate(2.341 2.318)"/><path class="aj" d="M.372.328,1.566.747,2.587,0l-.03,1.265,1.026.74L2.373,2.37l-.387,1.2-.72-1.041L0,2.538.767,1.532Z" transform="translate(2.432 2.407)"/><path class="ak" d="M.353.311l1.132.4L2.454,0,2.427,1.2l.972.7-1.149.345L1.884,3.386,1.2,2.4,0,2.4.728,1.45Z" transform="translate(2.521 2.496)"/><path class="al" d="M.333.3,1.4.668,2.316,0,2.291,1.135l.92.661-1.085.328L1.778,3.2l-.646-.932L0,2.274l.686-.9Z" transform="translate(2.612 2.585)"/></g><path class="am" d="M2.261,25.5C-.085,17.985,18.539,13.075,16.748,7.323L13.838,0C15.631,5.752-2.13,13.242.213,20.762Z" transform="translate(0.055 21.71)"/><path class="an" d="M21.031,15.339C18.688,7.819,2.891,10.788,1.1,5.039L0,0C1.793,5.752,17.588,2.782,19.934,10.3Z" transform="translate(0 39.389)"/><path class="ao" d="M2.328,24.117c-2.5-7.471,10.135-13.657,8.226-19.369L8.554,0C10.463,5.712-2.168,11.9.328,19.369Z" transform="translate(10.707 46.431)"/><path class="ap" d="M24.751,33.457C26.951,24.292.6,16.13,0,6.686L.247,0C2.975,7.483,29.373,19.342,25.959,28.408Z" transform="translate(68.363 22.648)"/><path class="aq" d="M0,8.244C2.2-.922,20.331,13.285,22.042,6.157l1.211-5.049C21.542,8.236,3.414-5.97,1.213,3.195Z" transform="translate(71.197 47.693)"/><path class="ar" d="M7.029,25.937C8.61,18.55-2,13.977.338,5.049L1.549,0C-.161,7.128,10.428,11.725,8.24,20.888Z" transform="translate(70.987 48.692)"/><path class="as" d="M1.243,22.933c2.2-9.163,21.369-10.756,23.081-17.884L25.535,0C23.808,6.191,2.193,4.235,0,13.886Z" transform="translate(53.692 67.286)"/><path class="at" d="M1.4,7.92A31.772,31.772,0,0,1,0,0L.025.015C1.048.6,1.712.959,2.03,1.139c.434.247,1.051.6,1.815,1.09a36.717,36.717,0,0,0,3.081,7.4,42.345,42.345,0,0,0,2.291,3.636,37.934,37.934,0,0,0,22.3,14.692L26.8,31.41A37.736,37.736,0,0,1,1.4,7.92Z" transform="translate(29.36 23.549)"/><circle class="au" cx="3.056" cy="3.056" r="3.056" transform="translate(0 54.625)"/><circle class="av" cx="2.259" cy="2.259" r="2.259" transform="translate(25.408 59.95)"/><circle class="aw" cx="3.056" cy="3.056" r="3.056" transform="translate(48.13 58.321)"/><circle class="ax" cx="3.056" cy="3.056" r="3.056" transform="translate(61.847 41.185)"/><circle class="ay" cx="2.161" cy="2.161" r="2.161" transform="translate(88.55 65.836)"/><circle class="az" cx="2.032" cy="2.032" r="2.032" transform="translate(28.872 83.429)"/><circle class="ba" cx="2.817" cy="2.817" r="2.817" transform="translate(39.646 72.335)"/><circle class="bb" cx="2.817" cy="2.817" r="2.817" transform="translate(81.496 77.322)"/><circle class="bc" cx="2.405" cy="2.405" r="2.405" transform="translate(35.463 51.214)"/><circle class="bd" cx="2.422" cy="2.422" r="2.422" transform="translate(14.503 73.684)"/><circle class="be" cx="1.768" cy="1.768" r="1.768" transform="translate(88.069 33.931)"/></g><g class="bf" transform="matrix(-0.891, 0.454, -0.454, -0.891, 1285.349, 515.769)"><path class="c" d="M49.153,27.552a24.484,24.484,0,0,1-5.426,13.262c-4.146,2-13.528,1.13-23.648-2.479C9.577,34.567,1.581,29.05,0,24.817c0-.594.035-1.186.091-1.8.042-.441.081-.883.146-1.3a24.632,24.632,0,1,1,48.917,5.836Z" transform="translate(2.605 0)"/><path class="d" d="M44.361,19.348a3.648,3.648,0,0,1-2,2.045c-4,2.01-13.04,1.174-22.78-2.4C9.466,15.261,1.793,9.773.276,5.545A3.532,3.532,0,0,1,.165,3.109a2.466,2.466,0,0,1,.348-.661C2.9-1.148,13.432-.759,24.948,3.464c11.146,4.1,19.347,10.379,19.571,14.685a2.96,2.96,0,0,1-.158,1.2Z" transform="translate(2.375 18.929)"/><path class="e" d="M19.981,20.172C9.839,16.426,1.936,10.874.314,6.36a4.129,4.129,0,0,1-.1-2.878A2.878,2.878,0,0,1,.617,2.7c2.577-3.887,13.4-3.547,25.158.777C37.105,7.65,45.506,14.055,45.753,18.7a3.552,3.552,0,0,1-.19,1.443h0a4.25,4.25,0,0,1-2.306,2.395A14.394,14.394,0,0,1,37,23.665a52.116,52.116,0,0,1-17.023-3.492ZM44.4,19.748a2.313,2.313,0,0,0,.126-.967c-.183-3.552-7.4-9.811-19.167-14.138C13.008.1,3.606.45,1.621,3.43a1.766,1.766,0,0,0-.247.493A2.942,2.942,0,0,0,1.48,5.951c1.48,4.129,9.269,9.508,18.935,13.072,9.372,3.441,18.333,4.415,22.3,2.422a3.061,3.061,0,0,0,1.687-1.69Z" transform="translate(1.758 18.348)"/><path class="f" d="M.092,26.744A24.7,24.7,0,0,0,3.274,36.78a24.345,24.345,0,0,0,2.22,3.236c4.149,2,13.531,1.13,23.648-2.479,10.5-3.769,18.5-9.286,20.079-13.518,0-.594-.035-1.186-.091-1.8-.042-.441-.081-.883-.146-1.3A24.632,24.632,0,0,0,.092,26.744Z" transform="translate(47.983 0.808)"/><path class="g" d="M.167,19.348a3.633,3.633,0,0,0,2,2.045c4,2.01,13.042,1.174,22.78-2.4,10.112-3.732,17.785-9.22,19.3-13.447a3.544,3.544,0,0,0,.109-2.437,2.466,2.466,0,0,0-.348-.661C41.63-1.148,31.093-.759,19.578,3.464,8.432,7.563.231,13.842.009,18.149A2.91,2.91,0,0,0,.167,19.348Z" transform="translate(52.915 18.929)"/><path class="h" d="M8.76,23.665A14.374,14.374,0,0,1,2.508,22.54,4.255,4.255,0,0,1,.2,20.145h0A3.6,3.6,0,0,1,.01,18.7C.256,14.055,8.642,7.65,19.988,3.482,31.75-.842,42.568-1.182,45.145,2.7a2.878,2.878,0,0,1,.407.777,4.129,4.129,0,0,1-.1,2.878c-1.62,4.511-9.523,10.063-19.667,13.812A52.116,52.116,0,0,1,8.76,23.665Zm-7.4-3.922a3.068,3.068,0,0,0,1.687,1.69c3.968,1.993,12.924,1.019,22.3-2.422C35.013,15.441,42.8,10.062,44.282,5.938a2.942,2.942,0,0,0,.106-2.027,1.761,1.761,0,0,0-.247-.493C42.153.426,32.751.088,20.4,4.631,8.64,8.957,1.413,15.217,1.235,18.769a2.314,2.314,0,0,0,.126.967Z" transform="translate(52.3 18.353)"/><path class="i" d="M.9.792,3.774,1.8,6.235,0,6.166,3.049,8.637,4.832l-2.92.878-.932,2.9L3.049,6.107,0,6.114,1.847,3.69Z" transform="translate(26.102 72.308)"/><path class="j" d="M.878.774l2.814.987L6.1,0,6.033,2.982l2.42,1.746L5.6,5.586,4.681,8.425l-1.7-2.452L0,5.984,1.808,3.611Z" transform="translate(26.189 72.397)"/><path class="k" d="M.856.76l2.755.962L5.964,0,5.9,2.918,8.265,4.625l-2.794.839L4.578,8.24l-1.662-2.4L0,5.85,1.766,3.529Z" transform="translate(26.278 72.486)"/><path class="l" d="M.839.742l2.691.942L5.831,0,5.767,2.851l2.311,1.67-2.73.819L4.474,8.053,2.851,5.71,0,5.72,1.729,3.451Z" transform="translate(26.365 72.575)"/><path class="m" d="M.819.723l2.627.92L5.695,0,5.631,2.782,7.89,4.412l-2.669.8L4.371,7.865,2.785,5.577,0,5.584,1.687,3.369Z" transform="translate(26.454 72.666)"/><path class="n" d="M.8.705l2.568.9L5.562,0,5.5,2.718,7.7,4.309l-2.6.782L4.267,7.678,2.72,5.443,0,5.451,1.648,3.29Z" transform="translate(26.541 72.755)"/><path class="o" d="M.779.688l2.5.878L5.424,0,5.364,2.651,7.515,4.205l-2.54.762L4.163,7.493,2.651,5.313,0,5.32,1.606,3.209Z" transform="translate(26.63 72.844)"/><path class="p" d="M.762.673,3.2,1.527,5.29,0,5.231,2.585,7.33,4.1l-2.479.745L4.06,7.306,2.587,5.179,0,5.187,1.569,3.13Z" transform="translate(26.717 72.932)"/><path class="q" d="M.74.656l2.38.831L5.155,0,5.1,2.521,7.14,4l-2.415.725-.77,2.4L2.521,5.049,0,5.056,1.527,3.051Z" transform="translate(26.806 73.021)"/><path class="r" d="M.723.639l2.316.811L5.019,0,4.965,2.454l1.99,1.438L4.6,4.6,3.853,6.933l-1.4-2.018L0,4.923,1.487,2.97Z" transform="translate(26.893 73.11)"/><path class="s" d="M.7.619l2.254.789L4.884,0,4.829,2.387l1.936,1.4-2.286.688-.73,2.274L2.388,4.782,0,4.79l1.448-1.9Z" transform="translate(26.982 73.201)"/><path class="t" d="M.683.6l2.193.767L4.75,0,4.7,2.321,6.58,3.68l-2.225.668-.71,2.21L2.323,4.649,0,4.657,1.408,2.809Z" transform="translate(27.069 73.29)"/><path class="u" d="M.663.587l2.129.745L4.615,0,4.563,2.254l1.83,1.322-2.161.649L3.542,6.373,2.257,4.519,0,4.523,1.366,2.73Z" transform="translate(27.158 73.379)"/><path class="v" d="M.644.57l2.067.723L4.479,0,4.43,2.19,6.206,3.47l-2.1.631L3.438,6.186,2.19,4.385,0,4.393,1.327,2.649Z" transform="translate(27.245 73.468)"/><path class="w" d="M.624.552l2.005.7L4.343,0,4.3,2.124,6.018,3.367l-2.035.612L3.332,6,2.124,4.255,0,4.26,1.287,2.57Z" transform="translate(27.334 73.556)"/><path class="x" d="M.607.535l1.941.681L4.21,0,4.163,2.057l1.67,1.206L3.86,3.855,3.231,5.813,2.059,4.121,0,4.129,1.248,2.491Z" transform="translate(27.421 73.645)"/><path class="y" d="M.585.518l1.882.659L4.072,0,4.028,1.993,5.643,3.159l-1.907.572-.612,1.9L1.99,3.991,0,4,1.206,2.412Z" transform="translate(27.51 74.583)"/><path class="z" d="M.567.5l1.818.636L3.939,0,3.9,1.924,5.458,3.051l-1.845.555L3.024,5.438l-1.1-1.583L0,3.862,1.167,2.328Z" transform="translate(27.597 74.678)"/><path class="aa" d="M.545.483,2.3,1.1,3.8,0,3.761,1.86,5.268,2.947l-1.781.535-.57,1.771L1.86,3.724,0,3.729l1.127-1.48Z" transform="translate(27.686 74.77)"/><path class="ab" d="M.528.466l1.694.592L3.67,0,3.628,1.793,5.083,2.844l-1.719.515L2.817,5.066,1.8,3.591,0,3.6,1.088,2.17Z" transform="translate(27.773 74.863)"/><path class="ac" d="M.508.449l1.63.57L3.532,0,3.495,1.726,4.9,2.738l-1.655.5-.53,1.645L1.726,3.46,0,3.465,1.046,2.092Z" transform="translate(27.862 74.955)"/><path class="ad" d="M.488.432l1.569.55L3.4,0,3.362,1.662l1.347.972-1.591.478L2.609,4.694,1.662,3.327,0,3.332,1.009,2.01Z" transform="translate(27.949 75.048)"/><path class="ae" d="M.469.414,1.976.942,3.263,0,3.226,1.6l1.295.935-1.529.459L2.5,4.509,1.6,3.2,0,3.2l.967-1.27Z" transform="translate(28.039 75.141)"/><path class="af" d="M.451.4,1.894.9,3.13,0,3.1,1.529l1.238.9-1.465.441L2.4,4.321,1.529,3.063,0,3.068.927,1.852Z" transform="translate(28.126 75.233)"/><path class="ag" d="M.429.38,1.81.863,2.992,0,2.96,1.463l1.186.856-1.4.422L2.3,4.134l-.834-1.2L0,2.935.885,1.771Z" transform="translate(28.215 74.449)"/><path class="ah" d="M.412.363l1.32.461L2.859,0,2.827,1.4l1.135.819-1.339.4L2.2,3.946,1.4,2.8,0,2.8.848,1.689Z" transform="translate(28.302 74.538)"/><path class="ai" d="M.392.345,1.648.787,2.723,0l-.03,1.332,1.078.779L2.5,2.494,2.089,3.761l-.757-1.1L0,2.669.807,1.611Z" transform="translate(28.391 74.627)"/><path class="aj" d="M.372.328,1.566.747,2.587,0,2.56,1.265l1.026.74L2.373,2.37l-.387,1.2-.72-1.041L0,2.538.767,1.532Z" transform="translate(28.478 74.716)"/><path class="ak" d="M.353.313,1.485.708,2.452,0,2.424,1.2l.972.7-1.147.345L1.882,3.389,1.2,2.4,0,2.4l.725-.952Z" transform="translate(28.567 74.805)"/><path class="al" d="M.333.3,1.4.671,2.318,0,2.294,1.135l.918.663-1.085.326L1.778,3.2l-.644-.932L0,2.274l.688-.9Z" transform="translate(28.654 74.893)"/><g transform="translate(65.254 64.292)"><path class="i" d="M.9.792,3.774,1.8,6.235,0,6.166,3.049,8.637,4.834l-2.92.876-.932,2.9L3.049,6.107,0,6.114,1.847,3.69Z"/><path class="j" d="M.878.777l2.814.984L6.1,0,6.033,2.982l2.42,1.746L5.6,5.586,4.681,8.425l-1.7-2.452L0,5.984,1.808,3.611Z" transform="translate(0.089 0.089)"/><path class="k" d="M.856.76l2.755.962L5.964,0,5.9,2.918,8.265,4.625l-2.794.839L4.578,8.24l-1.662-2.4L0,5.85,1.766,3.529Z" transform="translate(0.18 0.178)"/><path class="l" d="M.839.74l2.691.942L5.831,0,5.767,2.849l2.311,1.67-2.73.819L4.474,8.05,2.851,5.707,0,5.717,1.729,3.448Z" transform="translate(0.269 0.269)"/><path class="m" d="M.819.723l2.627.92L5.695,0,5.631,2.782,7.89,4.412l-2.669.8L4.371,7.865,2.785,5.577,0,5.584,1.687,3.369Z" transform="translate(0.36 0.358)"/><path class="n" d="M.8.705l2.568.9L5.562,0,5.5,2.718,7.7,4.309l-2.6.782L4.267,7.678,2.72,5.443,0,5.453,1.648,3.29Z" transform="translate(0.449 0.446)"/><path class="o" d="M.779.691l2.5.876L5.424,0,5.364,2.651,7.515,4.205l-2.54.762L4.163,7.493,2.651,5.313,0,5.32,1.606,3.209Z" transform="translate(0.54 0.535)"/><path class="p" d="M.762.673,3.2,1.527,5.29,0,5.231,2.587,7.33,4.1l-2.479.745L4.06,7.306,2.587,5.18,0,5.187,1.569,3.13Z" transform="translate(0.629 0.624)"/><path class="q" d="M.74.656l2.38.831L5.155,0,5.1,2.521,7.14,4l-2.412.725-.772,2.4L2.521,5.049,0,5.056,1.527,3.051Z" transform="translate(0.72 0.713)"/><path class="r" d="M.723.639l2.316.811L5.019,0,4.965,2.454l1.99,1.438L4.6,4.6,3.853,6.933l-1.4-2.018L0,4.923,1.487,2.972Z" transform="translate(0.809 0.802)"/><path class="s" d="M.7.619l2.254.789L4.884,0,4.829,2.388l1.936,1.4-2.286.688-.73,2.274L2.387,4.782,0,4.79l1.448-1.9Z" transform="translate(0.9 0.893)"/><path class="t" d="M.683.6l2.193.77L4.75,0,4.7,2.321,6.58,3.68l-2.225.668-.71,2.21L2.323,4.649,0,4.657,1.408,2.809Z" transform="translate(0.989 0.982)"/><path class="u" d="M.663.587l2.129.745L4.615,0,4.563,2.254l1.83,1.322-2.161.649L3.542,6.373,2.257,4.518,0,4.526l1.366-1.8Z" transform="translate(1.08 1.07)"/><path class="v" d="M.644.57l2.069.723L4.479,0,4.43,2.19,6.206,3.473l-2.1.629L3.438,6.186,2.19,4.385,0,4.393,1.327,2.651Z" transform="translate(1.169 1.159)"/><path class="w" d="M.624.552l2.005.7L4.343,0,4.3,2.124,6.018,3.367l-2.035.612L3.332,6,2.124,4.255,0,4.26,1.287,2.57Z" transform="translate(1.26 1.248)"/><path class="x" d="M.607.535l1.941.681L4.21,0,4.163,2.059l1.67,1.2L3.86,3.855,3.231,5.813,2.059,4.121,0,4.129,1.248,2.491Z" transform="translate(1.349 1.337)"/><path class="y" d="M.585.515l1.882.659L4.072,0,4.028,1.99,5.643,3.157l-1.907.572-.612,1.9L1.99,3.988,0,3.993,1.206,2.41Z" transform="translate(1.44 1.428)"/><path class="z" d="M.567.5l1.818.636L3.939,0,3.9,1.924,5.458,3.051l-1.845.555L3.024,5.438l-1.1-1.583L0,3.862,1.167,2.328Z" transform="translate(1.529 1.517)"/><path class="aa" d="M.548.483,2.3,1.1,3.8,0,3.761,1.86,5.268,2.947l-1.781.535-.57,1.771L1.86,3.724,0,3.729l1.127-1.48Z" transform="translate(1.62 1.606)"/><path class="ab" d="M.528.466l1.694.592L3.67,0,3.628,1.793,5.083,2.844l-1.719.515L2.817,5.066,1.8,3.591,0,3.6,1.088,2.17Z" transform="translate(1.709 1.694)"/><path class="ac" d="M.508.449l1.63.572L3.532,0,3.495,1.726,4.9,2.738l-1.655.5-.53,1.645L1.726,3.46,0,3.465,1.046,2.092Z" transform="translate(1.8 1.783)"/><path class="ad" d="M.488.432l1.569.55L3.4,0,3.362,1.662l1.347.972-1.591.478L2.609,4.694,1.662,3.327,0,3.332,1.009,2.01Z" transform="translate(1.889 1.872)"/><path class="ae" d="M.469.417,1.976.942,3.263,0,3.226,1.6l1.295.935-1.529.459L2.5,4.509,1.6,3.2,0,3.2l.967-1.27Z" transform="translate(1.981 1.961)"/><path class="af" d="M.451.4,1.894.9,3.13,0,3.1,1.529l1.238.9-1.465.439L2.4,4.319,1.529,3.061,0,3.066.927,1.85Z" transform="translate(2.069 2.052)"/><path class="ag" d="M.429.38,1.81.863,2.992,0,2.96,1.463l1.186.856-1.4.422L2.3,4.134l-.834-1.2L0,2.935.885,1.771Z" transform="translate(2.161 2.141)"/><path class="ah" d="M.412.363l1.32.461L2.859,0,2.827,1.4l1.135.819-1.339.4L2.2,3.946,1.4,2.8,0,2.8.848,1.69Z" transform="translate(2.249 2.23)"/><path class="ai" d="M.392.345,1.648.787,2.723,0l-.03,1.332,1.078.779L2.5,2.494,2.089,3.761l-.757-1.1L0,2.671.807,1.611Z" transform="translate(2.341 2.318)"/><path class="aj" d="M.372.328,1.566.747,2.587,0,2.56,1.265l1.026.74L2.373,2.37l-.387,1.2-.72-1.041L0,2.538.767,1.532Z" transform="translate(2.429 2.407)"/><path class="ak" d="M.353.313,1.485.708,2.452,0,2.424,1.2l.972.7-1.147.345L1.882,3.389,1.2,2.4,0,2.4l.725-.952Z" transform="translate(2.521 2.496)"/><path class="al" d="M.333.3,1.4.671,2.318,0,2.294,1.135l.918.663-1.085.326L1.778,3.2l-.644-.932L0,2.274l.688-.9Z" transform="translate(2.609 2.585)"/></g><g transform="translate(23.452 42.542)"><path class="i" d="M.9.792,3.776,1.8,6.235,0,6.169,3.049,8.64,4.832,5.72,5.71l-.932,2.9L3.051,6.1,0,6.114,1.847,3.69Z"/><path class="j" d="M.876.774l2.817.987L6.1,0,6.033,2.982l2.42,1.746-2.859.858L4.681,8.425l-1.7-2.452L0,5.984,1.808,3.608Z" transform="translate(0.091 0.089)"/><path class="k" d="M.858.757l2.753.964L5.966,0,5.9,2.915,8.265,4.625l-2.792.839-.9,2.777-1.66-2.4L0,5.85,1.768,3.529Z" transform="translate(0.18 0.178)"/><path class="l" d="M.839.742l2.691.942L5.831,0,5.767,2.851,8.078,4.518l-2.73.821L4.474,8.053,2.851,5.71,0,5.717,1.727,3.451Z" transform="translate(0.271 0.266)"/><path class="m" d="M.819.725l2.629.92L5.695,0,5.633,2.785,7.89,4.415l-2.666.8L4.371,7.868,2.785,5.577,0,5.586,1.687,3.372Z" transform="translate(0.36 0.355)"/><path class="n" d="M.8.705l2.565.9L5.559,0,5.5,2.718,7.7,4.309l-2.6.782L4.267,7.678,2.718,5.443,0,5.451,1.648,3.288Z" transform="translate(0.451 0.446)"/><path class="o" d="M.782.688l2.5.878L5.426,0,5.367,2.651,7.518,4.2l-2.54.765L4.163,7.493,2.654,5.31,0,5.32,1.608,3.209Z" transform="translate(0.54 0.535)"/><path class="p" d="M.76.671,3.2,1.527,5.29,0,5.231,2.585,7.328,4.1l-2.476.745L4.06,7.306,2.587,5.18,0,5.187,1.566,3.13Z" transform="translate(0.631 0.624)"/><path class="q" d="M.742.656l2.378.831L5.155,0,5.1,2.521,7.143,4l-2.415.725-.772,2.4L2.521,5.046,0,5.056,1.529,3.051Z" transform="translate(0.72 0.713)"/><path class="r" d="M.72.639l2.318.811L5.019,0,4.965,2.454,6.953,3.892,4.6,4.6l-.75,2.336-1.4-2.018L0,4.923,1.487,2.97Z" transform="translate(0.811 0.802)"/><path class="s" d="M.7.622l2.254.789L4.886,0,4.832,2.388l1.936,1.4-2.286.688L3.749,6.748,2.39,4.782,0,4.79l1.448-1.9Z" transform="translate(0.9 0.89)"/><path class="t" d="M.683.6l2.19.767L4.748,0,4.7,2.323,6.58,3.682l-2.225.668-.71,2.21L2.321,4.652,0,4.659,1.406,2.812Z" transform="translate(0.992 0.979)"/><path class="u" d="M.663.585l2.131.747L4.615,0,4.565,2.254,6.393,3.576l-2.161.649L3.542,6.371,2.257,4.518,0,4.523,1.369,2.73Z" transform="translate(1.08 1.07)"/><path class="v" d="M.644.57l2.067.723L4.479,0,4.43,2.19,6.206,3.47l-2.1.631L3.438,6.186,2.19,4.385,0,4.393,1.327,2.649Z" transform="translate(1.172 1.159)"/><path class="w" d="M.626.552l2,.7L4.346,0,4.3,2.124,6.018,3.367l-2.032.612L3.335,6,2.126,4.255,0,4.26,1.287,2.57Z" transform="translate(1.26 1.248)"/><path class="x" d="M.6.535l1.944.681L4.208,0,4.163,2.057,5.831,3.263,3.86,3.855,3.229,5.813,2.057,4.121,0,4.129,1.246,2.491Z" transform="translate(1.352 1.337)"/><path class="y" d="M.587.518l1.879.659L4.075,0,4.03,1.993,5.646,3.157l-1.909.575L3.127,5.626,1.993,3.991,0,4,1.209,2.41Z" transform="translate(1.44 1.426)"/><path class="z" d="M.565.5l1.818.636L3.939,0,3.894,1.926,5.456,3.053l-1.845.555L3.021,5.441l-1.1-1.583L0,3.862,1.167,2.331Z" transform="translate(1.532 1.514)"/><path class="aa" d="M.548.483,2.3,1.1,3.806,0,3.764,1.857l1.507,1.09L3.49,3.483,2.92,5.251,1.86,3.724,0,3.729l1.127-1.48Z" transform="translate(1.62 1.606)"/><path class="ab" d="M.528.466l1.692.592L3.668,0,3.628,1.793,5.083,2.841l-1.719.518-.55,1.707L1.793,3.591,0,3.6,1.088,2.17Z" transform="translate(1.712 1.694)"/><path class="ac" d="M.508.449l1.633.57L3.534,0,3.495,1.726,4.9,2.738l-1.655.5L2.713,4.879,1.729,3.46,0,3.465,1.048,2.089Z" transform="translate(1.8 1.783)"/><path class="ad" d="M.488.432l1.569.55L3.4,0,3.362,1.662l1.347.972-1.593.478L2.607,4.694,1.662,3.327,0,3.332,1.006,2.01Z" transform="translate(1.892 1.872)"/><path class="ae" d="M.471.414l1.5.528L3.263,0,3.229,1.6l1.292.935-1.527.459L2.506,4.506,1.6,3.2,0,3.2l.967-1.27Z" transform="translate(1.981 1.961)"/><path class="af" d="M.449.4,1.894.9,3.127,0,3.093,1.529l1.241.9-1.465.441L2.4,4.321,1.529,3.063,0,3.068.927,1.852Z" transform="translate(2.072 2.05)"/><path class="ag" d="M.432.382,1.813.866,2.994,0,2.96,1.465l1.189.856-1.4.422L2.3,4.134l-.834-1.2L0,2.935.888,1.771Z" transform="translate(2.161 2.138)"/><path class="ah" d="M.409.363l1.32.461L2.859,0,2.827,1.4l1.132.819-1.337.4L2.193,3.946,1.4,2.8,0,2.8.846,1.69Z" transform="translate(2.252 2.23)"/><path class="ai" d="M.392.345,1.65.784,2.723,0l-.03,1.329,1.08.779L2.5,2.494,2.092,3.759l-.76-1.093L0,2.669.807,1.611Z" transform="translate(2.341 2.318)"/><path class="aj" d="M.372.328,1.566.747,2.587,0l-.03,1.265,1.026.74L2.373,2.37l-.387,1.2-.72-1.041L0,2.538.767,1.532Z" transform="translate(2.432 2.407)"/><path class="ak" d="M.353.311l1.132.4L2.454,0,2.427,1.2l.972.7-1.149.345L1.884,3.386,1.2,2.4,0,2.4.728,1.45Z" transform="translate(2.521 2.496)"/><path class="al" d="M.333.3,1.4.668,2.316,0,2.291,1.135l.92.661-1.085.328L1.778,3.2l-.646-.932L0,2.274l.686-.9Z" transform="translate(2.612 2.585)"/></g><path class="am" d="M2.261,25.5C-.085,17.985,18.539,13.075,16.748,7.323L13.838,0C15.631,5.752-2.13,13.242.213,20.762Z" transform="translate(0.055 23.098)"/><path class="an" d="M21.031,15.339C18.688,7.819,2.891,10.788,1.1,5.039L0,0C1.793,5.752,17.588,2.782,19.934,10.3Z" transform="translate(0 41.566)"/><path class="ao" d="M2.328,24.117c-2.5-7.471,10.135-13.657,8.226-19.369L8.554,0C10.463,5.712-2.168,11.9.328,19.369Z" transform="translate(10.707 49.339)"/><path class="ap" d="M24.751,33.457C26.951,24.292.6,16.13,0,6.686L.247,0C2.975,7.483,29.373,19.342,25.959,28.408Z" transform="translate(72.705 24.299)"/><path class="aq" d="M0,8.244C2.2-.922,20.331,13.285,22.042,6.157l1.211-5.049C21.542,8.236,3.414-5.97,1.213,3.195Z" transform="translate(75.539 50.101)"/><path class="ar" d="M7.029,25.937C8.61,18.55-2,13.977.338,5.049L1.549,0C-.161,7.128,10.428,11.725,8.24,20.888Z" transform="translate(75.329 51.828)"/><path class="as" d="M1.243,22.933c2.2-9.163,21.369-10.756,23.081-17.884L25.535,0C23.808,6.191,2.193,4.235,0,13.886Z" transform="translate(58.034 71.425)"/><path class="at" d="M1.4,7.92A31.772,31.772,0,0,1,0,0L.025.015C1.048.6,1.712.959,2.03,1.139c.434.247,1.051.6,1.815,1.09a36.717,36.717,0,0,0,3.081,7.4,42.345,42.345,0,0,0,2.291,3.636,37.934,37.934,0,0,0,22.3,14.692L26.8,31.41A37.736,37.736,0,0,1,1.4,7.92Z" transform="translate(31.38 25.207)"/><circle class="au" cx="3.056" cy="3.056" r="3.056" transform="translate(0 57.314)"/><circle class="av" cx="2.259" cy="2.259" r="2.259" transform="translate(26.632 62.846)"/><circle class="aw" cx="3.056" cy="3.056" r="3.056" transform="translate(50.491 61.191)"/><circle class="ax" cx="3.056" cy="3.056" r="3.056" transform="translate(64.881 43.213)"/><circle class="ay" cx="2.161" cy="2.161" r="2.161" transform="translate(92.892 69.008)"/><circle class="az" cx="2.032" cy="2.032" r="2.032" transform="translate(30.257 87.568)"/><circle class="ba" cx="2.817" cy="2.817" r="2.817" transform="translate(41.581 76.474)"/><circle class="bb" cx="2.817" cy="2.817" r="2.817" transform="translate(85.838 81.461)"/><circle class="bc" cx="2.405" cy="2.405" r="2.405" transform="translate(37.177 53.697)"/><circle class="bd" cx="2.422" cy="2.422" r="2.422" transform="translate(14.503 77.823)"/><circle class="be" cx="1.768" cy="1.768" r="1.768" transform="translate(92.411 35.552)"/></g><g class="bg" transform="matrix(0.545, 0.839, -0.839, 0.545, 386.202, 443.593)"><path class="c" d="M49.153,27.552a24.484,24.484,0,0,1-5.426,13.262c-4.146,2-13.528,1.13-23.648-2.479C9.577,34.567,1.581,29.05,0,24.817c0-.594.035-1.186.091-1.8.042-.441.081-.883.146-1.3a24.632,24.632,0,1,1,48.917,5.836Z" transform="translate(2.605 0)"/><path class="d" d="M44.361,19.348a3.648,3.648,0,0,1-2,2.045c-4,2.01-13.04,1.174-22.78-2.4C9.466,15.261,1.793,9.773.276,5.545A3.532,3.532,0,0,1,.165,3.109a2.466,2.466,0,0,1,.348-.661C2.9-1.148,13.432-.759,24.948,3.464c11.146,4.1,19.347,10.379,19.571,14.685a2.96,2.96,0,0,1-.158,1.2Z" transform="translate(2.375 10.586)"/><path class="e" d="M19.981,20.172C9.839,16.426,1.936,10.874.314,6.36a4.129,4.129,0,0,1-.1-2.878A2.878,2.878,0,0,1,.617,2.7c2.577-3.887,13.4-3.547,25.158.777C37.105,7.65,45.506,14.055,45.753,18.7a3.552,3.552,0,0,1-.19,1.443h0a4.25,4.25,0,0,1-2.306,2.395A14.394,14.394,0,0,1,37,23.665a52.116,52.116,0,0,1-17.023-3.492ZM44.4,19.748a2.313,2.313,0,0,0,.126-.967c-.183-3.552-7.4-9.811-19.167-14.138C13.008.1,3.606.45,1.621,3.43a1.766,1.766,0,0,0-.247.493A2.942,2.942,0,0,0,1.48,5.951c1.48,4.129,9.269,9.508,18.935,13.072,9.372,3.441,18.333,4.415,22.3,2.422a3.061,3.061,0,0,0,1.687-1.69Z" transform="translate(1.758 10.123)"/><path class="f" d="M.092,26.744A24.7,24.7,0,0,0,3.274,36.78a24.345,24.345,0,0,0,2.22,3.236c4.149,2,13.531,1.13,23.648-2.479,10.5-3.769,18.5-9.286,20.079-13.518,0-.594-.035-1.186-.091-1.8-.042-.441-.081-.883-.146-1.3A24.632,24.632,0,0,0,.092,26.744Z" transform="translate(14.749 0.808)"/><path class="g" d="M.167,19.348a3.633,3.633,0,0,0,2,2.045c4,2.01,13.042,1.174,22.78-2.4,10.112-3.732,17.785-9.22,19.3-13.447a3.544,3.544,0,0,0,.109-2.437,2.466,2.466,0,0,0-.348-.661C41.63-1.148,31.093-.759,19.578,3.464,8.432,7.563.231,13.842.009,18.149A2.91,2.91,0,0,0,.167,19.348Z" transform="translate(19.681 10.586)"/><path class="h" d="M8.76,23.665A14.374,14.374,0,0,1,2.508,22.54,4.255,4.255,0,0,1,.2,20.145h0A3.6,3.6,0,0,1,.01,18.7C.256,14.055,8.642,7.65,19.988,3.482,31.75-.842,42.568-1.182,45.145,2.7a2.878,2.878,0,0,1,.407.777,4.129,4.129,0,0,1-.1,2.878c-1.62,4.511-9.523,10.063-19.667,13.812A52.116,52.116,0,0,1,8.76,23.665Zm-7.4-3.922a3.068,3.068,0,0,0,1.687,1.69c3.968,1.993,12.924,1.019,22.3-2.422C35.013,15.441,42.8,10.062,44.282,5.938a2.942,2.942,0,0,0,.106-2.027,1.761,1.761,0,0,0-.247-.493C42.153.426,32.751.088,20.4,4.631,8.64,8.957,1.413,15.217,1.235,18.769a2.314,2.314,0,0,0,.126.967Z" transform="translate(19.066 10.125)"/><path class="i" d="M.9.792,3.774,1.8,6.235,0,6.166,3.049,8.637,4.832l-2.92.878-.932,2.9L3.049,6.107,0,6.114,1.847,3.69Z" transform="translate(16.499 40.622)"/><path class="j" d="M.878.774l2.814.987L6.1,0,6.033,2.982l2.42,1.746L5.6,5.586,4.681,8.425l-1.7-2.452L0,5.984,1.808,3.611Z" transform="translate(16.573 40.711)"/><path class="k" d="M.856.76l2.755.962L5.964,0,5.9,2.918,8.265,4.625l-2.794.839L4.578,8.24l-1.662-2.4L0,5.85,1.766,3.529Z" transform="translate(16.65 40.8)"/><path class="l" d="M.839.742l2.691.942L5.831,0,5.767,2.851l2.311,1.67-2.73.819L4.474,8.053,2.851,5.71,0,5.72,1.729,3.451Z" transform="translate(16.724 40.889)"/><path class="m" d="M.819.723l2.627.92L5.695,0,5.631,2.782,7.89,4.412l-2.669.8L4.371,7.865,2.785,5.577,0,5.584,1.687,3.369Z" transform="translate(16.801 40.98)"/><path class="n" d="M.8.705l2.568.9L5.562,0,5.5,2.718,7.7,4.309l-2.6.782L4.267,7.678,2.72,5.443,0,5.451,1.648,3.29Z" transform="translate(16.876 41.069)"/><path class="o" d="M.779.688l2.5.878L5.424,0,5.364,2.651,7.515,4.205l-2.54.762L4.163,7.493,2.651,5.313,0,5.32,1.606,3.209Z" transform="translate(16.953 41.157)"/><path class="p" d="M.762.673,3.2,1.527,5.29,0,5.231,2.585,7.33,4.1l-2.479.745L4.06,7.306,2.587,5.179,0,5.187,1.569,3.13Z" transform="translate(17.027 41.246)"/><path class="q" d="M.74.656l2.38.831L5.155,0,5.1,2.521,7.14,4l-2.415.725-.77,2.4L2.521,5.049,0,5.056,1.527,3.051Z" transform="translate(17.104 41.335)"/><path class="r" d="M.723.639l2.316.811L5.019,0,4.965,2.454l1.99,1.438L4.6,4.6,3.853,6.933l-1.4-2.018L0,4.923,1.487,2.97Z" transform="translate(17.179 41.424)"/><path class="s" d="M.7.619l2.254.789L4.884,0,4.829,2.387l1.936,1.4-2.286.688-.73,2.274L2.388,4.782,0,4.79l1.448-1.9Z" transform="translate(17.256 41.515)"/><path class="t" d="M.683.6l2.193.767L4.75,0,4.7,2.321,6.58,3.68l-2.225.668-.71,2.21L2.323,4.649,0,4.657,1.408,2.809Z" transform="translate(17.331 41.604)"/><path class="u" d="M.663.587l2.129.745L4.615,0,4.563,2.254l1.83,1.322-2.161.649L3.542,6.373,2.257,4.519,0,4.523,1.366,2.73Z" transform="translate(17.408 41.693)"/><path class="v" d="M.644.57l2.067.723L4.479,0,4.43,2.19,6.206,3.47l-2.1.631L3.438,6.186,2.19,4.385,0,4.393,1.327,2.649Z" transform="translate(17.484 41.781)"/><path class="w" d="M.624.552l2.005.7L4.343,0,4.3,2.124,6.018,3.367l-2.035.612L3.332,6,2.124,4.255,0,4.26,1.287,2.57Z" transform="translate(17.561 41.87)"/><path class="x" d="M.607.535l1.941.681L4.21,0,4.163,2.057l1.67,1.206L3.86,3.855,3.231,5.813,2.059,4.121,0,4.129,1.248,2.491Z" transform="translate(17.636 41.959)"/><path class="y" d="M.585.518l1.882.659L4.072,0,4.028,1.993,5.643,3.159l-1.907.572-.612,1.9L1.99,3.991,0,4,1.206,2.412Z" transform="translate(17.713 47.949)"/><path class="z" d="M.567.5l1.818.636L3.939,0,3.9,1.924,5.458,3.051l-1.845.555L3.024,5.438l-1.1-1.583L0,3.862,1.167,2.328Z" transform="translate(17.789 48.067)"/><path class="aa" d="M.545.483,2.3,1.1,3.8,0,3.761,1.86,5.268,2.947l-1.781.535-.57,1.771L1.86,3.724,0,3.729l1.127-1.48Z" transform="translate(17.866 48.182)"/><path class="ab" d="M.528.466l1.694.592L3.67,0,3.628,1.793,5.083,2.844l-1.719.515L2.817,5.066,1.8,3.591,0,3.6,1.088,2.17Z" transform="translate(17.942 48.297)"/><path class="ac" d="M.508.449l1.63.57L3.532,0,3.495,1.726,4.9,2.738l-1.655.5-.53,1.645L1.726,3.46,0,3.465,1.046,2.092Z" transform="translate(18.019 48.412)"/><path class="ad" d="M.488.432l1.569.55L3.4,0,3.362,1.662l1.347.972-1.591.478L2.609,4.694,1.662,3.327,0,3.332,1.009,2.01Z" transform="translate(18.095 48.527)"/><path class="ae" d="M.469.414,1.976.942,3.263,0,3.226,1.6l1.295.935-1.529.459L2.5,4.509,1.6,3.2,0,3.2l.967-1.27Z" transform="translate(18.172 48.642)"/><path class="af" d="M.451.4,1.894.9,3.13,0,3.1,1.529l1.238.9-1.465.441L2.4,4.321,1.529,3.063,0,3.068.927,1.852Z" transform="translate(18.248 48.757)"/><path class="ag" d="M.429.38,1.81.863,2.992,0,2.96,1.463l1.186.856-1.4.422L2.3,4.134l-.834-1.2L0,2.935.885,1.771Z" transform="translate(18.326 42.763)"/><path class="ah" d="M.412.363l1.32.461L2.859,0,2.827,1.4l1.135.819-1.339.4L2.2,3.946,1.4,2.8,0,2.8.848,1.689Z" transform="translate(18.402 42.852)"/><path class="ai" d="M.392.345,1.648.787,2.723,0l-.03,1.332,1.078.779L2.5,2.494,2.089,3.761l-.757-1.1L0,2.669.807,1.611Z" transform="translate(18.479 42.941)"/><path class="aj" d="M.372.328,1.566.747,2.587,0,2.56,1.265l1.026.74L2.373,2.37l-.387,1.2-.72-1.041L0,2.538.767,1.532Z" transform="translate(18.555 43.029)"/><path class="ak" d="M.353.313,1.485.708,2.452,0,2.424,1.2l.972.7-1.147.345L1.882,3.389,1.2,2.4,0,2.4l.725-.952Z" transform="translate(18.633 43.118)"/><path class="al" d="M.333.3,1.4.671,2.318,0,2.294,1.135l.918.663-1.085.326L1.778,3.2l-.644-.932L0,2.274l.688-.9Z" transform="translate(18.709 43.207)"/><g transform="translate(41.246 40.534)"><path class="i" d="M.9.792,3.774,1.8,6.235,0,6.166,3.049,8.637,4.834l-2.92.876-.932,2.9L3.049,6.107,0,6.114,1.847,3.69Z"/><path class="j" d="M.878.777l2.814.984L6.1,0,6.033,2.982l2.42,1.746L5.6,5.586,4.681,8.425l-1.7-2.452L0,5.984,1.808,3.611Z" transform="translate(0.089 0.089)"/><path class="k" d="M.856.76l2.755.962L5.964,0,5.9,2.918,8.265,4.625l-2.794.839L4.578,8.24l-1.662-2.4L0,5.85,1.766,3.529Z" transform="translate(0.18 0.178)"/><path class="l" d="M.839.74l2.691.942L5.831,0,5.767,2.849l2.311,1.67-2.73.819L4.474,8.05,2.851,5.707,0,5.717,1.729,3.448Z" transform="translate(0.269 0.269)"/><path class="m" d="M.819.723l2.627.92L5.695,0,5.631,2.782,7.89,4.412l-2.669.8L4.371,7.865,2.785,5.577,0,5.584,1.687,3.369Z" transform="translate(0.36 0.358)"/><path class="n" d="M.8.705l2.568.9L5.562,0,5.5,2.718,7.7,4.309l-2.6.782L4.267,7.678,2.72,5.443,0,5.453,1.648,3.29Z" transform="translate(0.449 0.446)"/><path class="o" d="M.779.691l2.5.876L5.424,0,5.364,2.651,7.515,4.205l-2.54.762L4.163,7.493,2.651,5.313,0,5.32,1.606,3.209Z" transform="translate(0.54 0.535)"/><path class="p" d="M.762.673,3.2,1.527,5.29,0,5.231,2.587,7.33,4.1l-2.479.745L4.06,7.306,2.587,5.18,0,5.187,1.569,3.13Z" transform="translate(0.629 0.624)"/><path class="q" d="M.74.656l2.38.831L5.155,0,5.1,2.521,7.14,4l-2.412.725-.772,2.4L2.521,5.049,0,5.056,1.527,3.051Z" transform="translate(0.72 0.713)"/><path class="r" d="M.723.639l2.316.811L5.019,0,4.965,2.454l1.99,1.438L4.6,4.6,3.853,6.933l-1.4-2.018L0,4.923,1.487,2.972Z" transform="translate(0.809 0.802)"/><path class="s" d="M.7.619l2.254.789L4.884,0,4.829,2.388l1.936,1.4-2.286.688-.73,2.274L2.387,4.782,0,4.79l1.448-1.9Z" transform="translate(0.9 0.893)"/><path class="t" d="M.683.6l2.193.77L4.75,0,4.7,2.321,6.58,3.68l-2.225.668-.71,2.21L2.323,4.649,0,4.657,1.408,2.809Z" transform="translate(0.989 0.982)"/><path class="u" d="M.663.587l2.129.745L4.615,0,4.563,2.254l1.83,1.322-2.161.649L3.542,6.373,2.257,4.518,0,4.526l1.366-1.8Z" transform="translate(1.08 1.07)"/><path class="v" d="M.644.57l2.069.723L4.479,0,4.43,2.19,6.206,3.473l-2.1.629L3.438,6.186,2.19,4.385,0,4.393,1.327,2.651Z" transform="translate(1.169 1.159)"/><path class="w" d="M.624.552l2.005.7L4.343,0,4.3,2.124,6.018,3.367l-2.035.612L3.332,6,2.124,4.255,0,4.26,1.287,2.57Z" transform="translate(1.26 1.248)"/><path class="x" d="M.607.535l1.941.681L4.21,0,4.163,2.059l1.67,1.2L3.86,3.855,3.231,5.813,2.059,4.121,0,4.129,1.248,2.491Z" transform="translate(1.349 1.337)"/><path class="y" d="M.585.515l1.882.659L4.072,0,4.028,1.99,5.643,3.157l-1.907.572-.612,1.9L1.99,3.988,0,3.993,1.206,2.41Z" transform="translate(1.44 1.428)"/><path class="z" d="M.567.5l1.818.636L3.939,0,3.9,1.924,5.458,3.051l-1.845.555L3.024,5.438l-1.1-1.583L0,3.862,1.167,2.328Z" transform="translate(1.529 1.517)"/><path class="aa" d="M.548.483,2.3,1.1,3.8,0,3.761,1.86,5.268,2.947l-1.781.535-.57,1.771L1.86,3.724,0,3.729l1.127-1.48Z" transform="translate(1.62 1.606)"/><path class="ab" d="M.528.466l1.694.592L3.67,0,3.628,1.793,5.083,2.844l-1.719.515L2.817,5.066,1.8,3.591,0,3.6,1.088,2.17Z" transform="translate(1.709 1.694)"/><path class="ac" d="M.508.449l1.63.572L3.532,0,3.495,1.726,4.9,2.738l-1.655.5-.53,1.645L1.726,3.46,0,3.465,1.046,2.092Z" transform="translate(1.8 1.783)"/><path class="ad" d="M.488.432l1.569.55L3.4,0,3.362,1.662l1.347.972-1.591.478L2.609,4.694,1.662,3.327,0,3.332,1.009,2.01Z" transform="translate(1.889 1.872)"/><path class="ae" d="M.469.417,1.976.942,3.263,0,3.226,1.6l1.295.935-1.529.459L2.5,4.509,1.6,3.2,0,3.2l.967-1.27Z" transform="translate(1.981 1.961)"/><path class="af" d="M.451.4,1.894.9,3.13,0,3.1,1.529l1.238.9-1.465.439L2.4,4.319,1.529,3.061,0,3.066.927,1.85Z" transform="translate(2.069 2.052)"/><path class="ag" d="M.429.38,1.81.863,2.992,0,2.96,1.463l1.186.856-1.4.422L2.3,4.134l-.834-1.2L0,2.935.885,1.771Z" transform="translate(2.161 2.141)"/><path class="ah" d="M.412.363l1.32.461L2.859,0,2.827,1.4l1.135.819-1.339.4L2.2,3.946,1.4,2.8,0,2.8.848,1.69Z" transform="translate(2.249 2.23)"/><path class="ai" d="M.392.345,1.648.787,2.723,0l-.03,1.332,1.078.779L2.5,2.494,2.089,3.761l-.757-1.1L0,2.671.807,1.611Z" transform="translate(2.341 2.318)"/><path class="aj" d="M.372.328,1.566.747,2.587,0,2.56,1.265l1.026.74L2.373,2.37l-.387,1.2-.72-1.041L0,2.538.767,1.532Z" transform="translate(2.429 2.407)"/><path class="ak" d="M.353.313,1.485.708,2.452,0,2.424,1.2l.972.7-1.147.345L1.882,3.389,1.2,2.4,0,2.4l.725-.952Z" transform="translate(2.521 2.496)"/><path class="al" d="M.333.3,1.4.671,2.318,0,2.294,1.135l.918.663-1.085.326L1.778,3.2l-.644-.932L0,2.274l.688-.9Z" transform="translate(2.609 2.585)"/></g><g transform="translate(14.823 26.821)"><path class="i" d="M.9.792,3.776,1.8,6.235,0,6.169,3.049,8.64,4.832,5.72,5.71l-.932,2.9L3.051,6.1,0,6.114,1.847,3.69Z"/><path class="j" d="M.876.774l2.817.987L6.1,0,6.033,2.982l2.42,1.746-2.859.858L4.681,8.425l-1.7-2.452L0,5.984,1.808,3.608Z" transform="translate(0.091 0.089)"/><path class="k" d="M.858.757l2.753.964L5.966,0,5.9,2.915,8.265,4.625l-2.792.839-.9,2.777-1.66-2.4L0,5.85,1.768,3.529Z" transform="translate(0.18 0.178)"/><path class="l" d="M.839.742l2.691.942L5.831,0,5.767,2.851,8.078,4.518l-2.73.821L4.474,8.053,2.851,5.71,0,5.717,1.727,3.451Z" transform="translate(0.271 0.266)"/><path class="m" d="M.819.725l2.629.92L5.695,0,5.633,2.785,7.89,4.415l-2.666.8L4.371,7.868,2.785,5.577,0,5.586,1.687,3.372Z" transform="translate(0.36 0.355)"/><path class="n" d="M.8.705l2.565.9L5.559,0,5.5,2.718,7.7,4.309l-2.6.782L4.267,7.678,2.718,5.443,0,5.451,1.648,3.288Z" transform="translate(0.451 0.446)"/><path class="o" d="M.782.688l2.5.878L5.426,0,5.367,2.651,7.518,4.2l-2.54.765L4.163,7.493,2.654,5.31,0,5.32,1.608,3.209Z" transform="translate(0.54 0.535)"/><path class="p" d="M.76.671,3.2,1.527,5.29,0,5.231,2.585,7.328,4.1l-2.476.745L4.06,7.306,2.587,5.18,0,5.187,1.566,3.13Z" transform="translate(0.631 0.624)"/><path class="q" d="M.742.656l2.378.831L5.155,0,5.1,2.521,7.143,4l-2.415.725-.772,2.4L2.521,5.046,0,5.056,1.529,3.051Z" transform="translate(0.72 0.713)"/><path class="r" d="M.72.639l2.318.811L5.019,0,4.965,2.454,6.953,3.892,4.6,4.6l-.75,2.336-1.4-2.018L0,4.923,1.487,2.97Z" transform="translate(0.811 0.802)"/><path class="s" d="M.7.622l2.254.789L4.886,0,4.832,2.388l1.936,1.4-2.286.688L3.749,6.748,2.39,4.782,0,4.79l1.448-1.9Z" transform="translate(0.9 0.89)"/><path class="t" d="M.683.6l2.19.767L4.748,0,4.7,2.323,6.58,3.682l-2.225.668-.71,2.21L2.321,4.652,0,4.659,1.406,2.812Z" transform="translate(0.992 0.979)"/><path class="u" d="M.663.585l2.131.747L4.615,0,4.565,2.254,6.393,3.576l-2.161.649L3.542,6.371,2.257,4.518,0,4.523,1.369,2.73Z" transform="translate(1.08 1.07)"/><path class="v" d="M.644.57l2.067.723L4.479,0,4.43,2.19,6.206,3.47l-2.1.631L3.438,6.186,2.19,4.385,0,4.393,1.327,2.649Z" transform="translate(1.172 1.159)"/><path class="w" d="M.626.552l2,.7L4.346,0,4.3,2.124,6.018,3.367l-2.032.612L3.335,6,2.126,4.255,0,4.26,1.287,2.57Z" transform="translate(1.26 1.248)"/><path class="x" d="M.6.535l1.944.681L4.208,0,4.163,2.057,5.831,3.263,3.86,3.855,3.229,5.813,2.057,4.121,0,4.129,1.246,2.491Z" transform="translate(1.352 1.337)"/><path class="y" d="M.587.518l1.879.659L4.075,0,4.03,1.993,5.646,3.157l-1.909.575L3.127,5.626,1.993,3.991,0,4,1.209,2.41Z" transform="translate(1.44 1.426)"/><path class="z" d="M.565.5l1.818.636L3.939,0,3.894,1.926,5.456,3.053l-1.845.555L3.021,5.441l-1.1-1.583L0,3.862,1.167,2.331Z" transform="translate(1.532 1.514)"/><path class="aa" d="M.548.483,2.3,1.1,3.806,0,3.764,1.857l1.507,1.09L3.49,3.483,2.92,5.251,1.86,3.724,0,3.729l1.127-1.48Z" transform="translate(1.62 1.606)"/><path class="ab" d="M.528.466l1.692.592L3.668,0,3.628,1.793,5.083,2.841l-1.719.518-.55,1.707L1.793,3.591,0,3.6,1.088,2.17Z" transform="translate(1.712 1.694)"/><path class="ac" d="M.508.449l1.633.57L3.534,0,3.495,1.726,4.9,2.738l-1.655.5L2.713,4.879,1.729,3.46,0,3.465,1.048,2.089Z" transform="translate(1.8 1.783)"/><path class="ad" d="M.488.432l1.569.55L3.4,0,3.362,1.662l1.347.972-1.593.478L2.607,4.694,1.662,3.327,0,3.332,1.006,2.01Z" transform="translate(1.892 1.872)"/><path class="ae" d="M.471.414l1.5.528L3.263,0,3.229,1.6l1.292.935-1.527.459L2.506,4.506,1.6,3.2,0,3.2l.967-1.27Z" transform="translate(1.981 1.961)"/><path class="af" d="M.449.4,1.894.9,3.127,0,3.093,1.529l1.241.9-1.465.441L2.4,4.321,1.529,3.063,0,3.068.927,1.852Z" transform="translate(2.072 2.05)"/><path class="ag" d="M.432.382,1.813.866,2.994,0,2.96,1.465l1.189.856-1.4.422L2.3,4.134l-.834-1.2L0,2.935.888,1.771Z" transform="translate(2.161 2.138)"/><path class="ah" d="M.409.363l1.32.461L2.859,0,2.827,1.4l1.132.819-1.337.4L2.193,3.946,1.4,2.8,0,2.8.846,1.69Z" transform="translate(2.252 2.23)"/><path class="ai" d="M.392.345,1.65.784,2.723,0l-.03,1.329,1.08.779L2.5,2.494,2.092,3.759l-.76-1.093L0,2.669.807,1.611Z" transform="translate(2.341 2.318)"/><path class="aj" d="M.372.328,1.566.747,2.587,0l-.03,1.265,1.026.74L2.373,2.37l-.387,1.2-.72-1.041L0,2.538.767,1.532Z" transform="translate(2.432 2.407)"/><path class="ak" d="M.353.311l1.132.4L2.454,0,2.427,1.2l.972.7-1.149.345L1.884,3.386,1.2,2.4,0,2.4.728,1.45Z" transform="translate(2.521 2.496)"/><path class="al" d="M.333.3,1.4.668,2.316,0,2.291,1.135l.92.661-1.085.328L1.778,3.2l-.646-.932L0,2.274l.686-.9Z" transform="translate(2.612 2.585)"/></g><path class="am" d="M2.261,25.5C-.085,17.985,18.539,13.075,16.748,7.323L13.838,0C15.631,5.752-2.13,13.242.213,20.762Z" transform="translate(0.055 12.469)"/><path class="an" d="M21.031,15.339C18.688,7.819,2.891,10.788,1.1,5.039L0,0C1.793,5.752,17.588,2.782,19.934,10.3Z" transform="translate(0 24.899)"/><path class="ao" d="M2.328,24.117c-2.5-7.471,10.135-13.657,8.226-19.369L8.554,0C10.463,5.712-2.168,11.9.328,19.369Z" transform="translate(10.707 27.082)"/><path class="ap" d="M24.751,33.457C26.951,24.292.6,16.13,0,6.686L.247,0C2.975,7.483,29.373,19.342,25.959,28.408Z" transform="translate(39.47 11.657)"/><path class="aq" d="M0,8.244C2.2-.922,20.331,13.285,22.042,6.157l1.211-5.049C21.542,8.236,3.414-5.97,1.213,3.195Z" transform="translate(42.304 31.666)"/><path class="ar" d="M7.029,25.937C8.61,18.55-2,13.977.338,5.049L1.549,0C-.161,7.128,10.428,11.725,8.24,20.888Z" transform="translate(42.095 27.826)"/><path class="as" d="M1.243,22.933c2.2-9.163,21.369-10.756,23.081-17.884L25.535,0C23.808,6.191,2.193,4.235,0,13.886Z" transform="translate(24.8 39.739)"/><path class="at" d="M1.4,7.92A31.772,31.772,0,0,1,0,0L.025.015C1.048.6,1.712.959,2.03,1.139c.434.247,1.051.6,1.815,1.09a36.717,36.717,0,0,0,3.081,7.4,42.345,42.345,0,0,0,2.291,3.636,37.934,37.934,0,0,0,22.3,14.692L26.8,31.41A37.736,37.736,0,0,1,1.4,7.92Z" transform="translate(15.918 12.518)"/><circle class="au" cx="3.056" cy="3.056" r="3.056" transform="translate(0 36.734)"/><circle class="av" cx="2.259" cy="2.259" r="2.259" transform="translate(17.261 40.68)"/><circle class="aw" cx="3.056" cy="3.056" r="3.056" transform="translate(32.42 39.22)"/><circle class="ax" cx="3.056" cy="3.056" r="3.056" transform="translate(41.659 27.696)"/><circle class="ay" cx="2.161" cy="2.161" r="2.161" transform="translate(59.658 44.723)"/><circle class="az" cx="2.032" cy="2.032" r="2.032" transform="translate(19.661 55.882)"/><circle class="ba" cx="2.817" cy="2.817" r="2.817" transform="translate(26.775 44.788)"/><circle class="bb" cx="2.817" cy="2.817" r="2.817" transform="translate(52.604 49.775)"/><circle class="bc" cx="2.405" cy="2.405" r="2.405" transform="translate(24.055 34.696)"/><circle class="bd" cx="2.422" cy="2.422" r="2.422" transform="translate(14.503 46.137)"/><circle class="be" cx="1.768" cy="1.768" r="1.768" transform="translate(59.177 23.148)"/></g><g class="bh" transform="matrix(0.259, -0.966, 0.966, 0.259, 14.487, 273.908)"><path class="c" d="M49.153,27.552a24.484,24.484,0,0,1-5.426,13.262c-4.146,2-13.528,1.13-23.648-2.479C9.577,34.567,1.581,29.05,0,24.817c0-.594.035-1.186.091-1.8.042-.441.081-.883.146-1.3a24.632,24.632,0,1,1,48.917,5.836Z" transform="translate(2.605 0)"/><path class="d" d="M44.361,19.348a3.648,3.648,0,0,1-2,2.045c-4,2.01-13.04,1.174-22.78-2.4C9.466,15.261,1.793,9.773.276,5.545A3.532,3.532,0,0,1,.165,3.109a2.466,2.466,0,0,1,.348-.661C2.9-1.148,13.432-.759,24.948,3.464c11.146,4.1,19.347,10.379,19.571,14.685a2.96,2.96,0,0,1-.158,1.2Z" transform="translate(2.375 17.717)"/><path class="e" d="M19.981,20.172C9.839,16.426,1.936,10.874.314,6.36a4.129,4.129,0,0,1-.1-2.878A2.878,2.878,0,0,1,.617,2.7c2.577-3.887,13.4-3.547,25.158.777C37.105,7.65,45.506,14.055,45.753,18.7a3.552,3.552,0,0,1-.19,1.443h0a4.25,4.25,0,0,1-2.306,2.395A14.394,14.394,0,0,1,37,23.665a52.116,52.116,0,0,1-17.023-3.492ZM44.4,19.748a2.313,2.313,0,0,0,.126-.967c-.183-3.552-7.4-9.811-19.167-14.138C13.008.1,3.606.45,1.621,3.43a1.766,1.766,0,0,0-.247.493A2.942,2.942,0,0,0,1.48,5.951c1.48,4.129,9.269,9.508,18.935,13.072,9.372,3.441,18.333,4.415,22.3,2.422a3.061,3.061,0,0,0,1.687-1.69Z" transform="translate(1.758 17.153)"/><path class="f" d="M.092,26.744A24.7,24.7,0,0,0,3.274,36.78a24.345,24.345,0,0,0,2.22,3.236c4.149,2,13.531,1.13,23.648-2.479,10.5-3.769,18.5-9.286,20.079-13.518,0-.594-.035-1.186-.091-1.8-.042-.441-.081-.883-.146-1.3A24.632,24.632,0,0,0,.092,26.744Z" transform="translate(43.156 0.808)"/><path class="g" d="M.167,19.348a3.633,3.633,0,0,0,2,2.045c4,2.01,13.042,1.174,22.78-2.4,10.112-3.732,17.785-9.22,19.3-13.447a3.544,3.544,0,0,0,.109-2.437,2.466,2.466,0,0,0-.348-.661C41.63-1.148,31.093-.759,19.578,3.464,8.432,7.563.231,13.842.009,18.149A2.91,2.91,0,0,0,.167,19.348Z" transform="translate(48.087 17.717)"/><path class="h" d="M8.76,23.665A14.374,14.374,0,0,1,2.508,22.54,4.255,4.255,0,0,1,.2,20.145h0A3.6,3.6,0,0,1,.01,18.7C.256,14.055,8.642,7.65,19.988,3.482,31.75-.842,42.568-1.182,45.145,2.7a2.878,2.878,0,0,1,.407.777,4.129,4.129,0,0,1-.1,2.878c-1.62,4.511-9.523,10.063-19.667,13.812A52.116,52.116,0,0,1,8.76,23.665Zm-7.4-3.922a3.068,3.068,0,0,0,1.687,1.69c3.968,1.993,12.924,1.019,22.3-2.422C35.013,15.441,42.8,10.062,44.282,5.938a2.942,2.942,0,0,0,.106-2.027,1.761,1.761,0,0,0-.247-.493C42.153.426,32.751.088,20.4,4.631,8.64,8.957,1.413,15.217,1.235,18.769a2.314,2.314,0,0,0,.126.967Z" transform="translate(47.473 17.158)"/><path class="i" d="M.9.792,3.774,1.8,6.235,0,6.166,3.049,8.637,4.832l-2.92.878-.932,2.9L3.049,6.107,0,6.114,1.847,3.69Z" transform="translate(24.707 67.706)"/><path class="j" d="M.878.774l2.814.987L6.1,0,6.033,2.982l2.42,1.746L5.6,5.586,4.681,8.425l-1.7-2.452L0,5.984,1.808,3.611Z" transform="translate(24.792 67.795)"/><path class="k" d="M.856.76l2.755.962L5.964,0,5.9,2.918,8.265,4.625l-2.794.839L4.578,8.24l-1.662-2.4L0,5.85,1.766,3.529Z" transform="translate(24.879 67.883)"/><path class="l" d="M.839.742l2.691.942L5.831,0,5.767,2.851l2.311,1.67-2.73.819L4.474,8.053,2.851,5.71,0,5.72,1.729,3.451Z" transform="translate(24.964 67.972)"/><path class="m" d="M.819.723l2.627.92L5.695,0,5.631,2.782,7.89,4.412l-2.669.8L4.371,7.865,2.785,5.577,0,5.584,1.687,3.369Z" transform="translate(25.052 68.063)"/><path class="n" d="M.8.705l2.568.9L5.562,0,5.5,2.718,7.7,4.309l-2.6.782L4.267,7.678,2.72,5.443,0,5.451,1.648,3.29Z" transform="translate(25.137 68.152)"/><path class="o" d="M.779.688l2.5.878L5.424,0,5.364,2.651,7.515,4.205l-2.54.762L4.163,7.493,2.651,5.313,0,5.32,1.606,3.209Z" transform="translate(25.224 68.241)"/><path class="p" d="M.762.673,3.2,1.527,5.29,0,5.231,2.585,7.33,4.1l-2.479.745L4.06,7.306,2.587,5.179,0,5.187,1.569,3.13Z" transform="translate(25.309 68.33)"/><path class="q" d="M.74.656l2.38.831L5.155,0,5.1,2.521,7.14,4l-2.415.725-.77,2.4L2.521,5.049,0,5.056,1.527,3.051Z" transform="translate(25.397 68.419)"/><path class="r" d="M.723.639l2.316.811L5.019,0,4.965,2.454l1.99,1.438L4.6,4.6,3.853,6.933l-1.4-2.018L0,4.923,1.487,2.97Z" transform="translate(25.482 68.507)"/><path class="s" d="M.7.619l2.254.789L4.884,0,4.829,2.387l1.936,1.4-2.286.688-.73,2.274L2.388,4.782,0,4.79l1.448-1.9Z" transform="translate(25.569 68.599)"/><path class="t" d="M.683.6l2.193.767L4.75,0,4.7,2.321,6.58,3.68l-2.225.668-.71,2.21L2.323,4.649,0,4.657,1.408,2.809Z" transform="translate(25.654 68.687)"/><path class="u" d="M.663.587l2.129.745L4.615,0,4.563,2.254l1.83,1.322-2.161.649L3.542,6.373,2.257,4.519,0,4.523,1.366,2.73Z" transform="translate(25.742 68.776)"/><path class="v" d="M.644.57l2.067.723L4.479,0,4.43,2.19,6.206,3.47l-2.1.631L3.438,6.186,2.19,4.385,0,4.393,1.327,2.649Z" transform="translate(25.827 68.865)"/><path class="w" d="M.624.552l2.005.7L4.343,0,4.3,2.124,6.018,3.367l-2.035.612L3.332,6,2.124,4.255,0,4.26,1.287,2.57Z" transform="translate(25.914 68.954)"/><path class="x" d="M.607.535l1.941.681L4.21,0,4.163,2.057l1.67,1.206L3.86,3.855,3.231,5.813,2.059,4.121,0,4.129,1.248,2.491Z" transform="translate(26 69.043)"/><path class="y" d="M.585.518l1.882.659L4.072,0,4.028,1.993,5.643,3.159l-1.907.572-.612,1.9L1.99,3.991,0,4,1.206,2.412Z" transform="translate(26.087 70.714)"/><path class="z" d="M.567.5l1.818.636L3.939,0,3.9,1.924,5.458,3.051l-1.845.555L3.024,5.438l-1.1-1.583L0,3.862,1.167,2.328Z" transform="translate(26.172 70.812)"/><path class="aa" d="M.545.483,2.3,1.1,3.8,0,3.761,1.86,5.268,2.947l-1.781.535-.57,1.771L1.86,3.724,0,3.729l1.127-1.48Z" transform="translate(26.26 70.908)"/><path class="ab" d="M.528.466l1.694.592L3.67,0,3.628,1.793,5.083,2.844l-1.719.515L2.817,5.066,1.8,3.591,0,3.6,1.088,2.17Z" transform="translate(26.345 71.004)"/><path class="ac" d="M.508.449l1.63.57L3.532,0,3.495,1.726,4.9,2.738l-1.655.5-.53,1.645L1.726,3.46,0,3.465,1.046,2.092Z" transform="translate(26.433 71.1)"/><path class="ad" d="M.488.432l1.569.55L3.4,0,3.362,1.662l1.347.972-1.591.478L2.609,4.694,1.662,3.327,0,3.332,1.009,2.01Z" transform="translate(26.518 71.196)"/><path class="ae" d="M.469.414,1.976.942,3.263,0,3.226,1.6l1.295.935-1.529.459L2.5,4.509,1.6,3.2,0,3.2l.967-1.27Z" transform="translate(26.605 71.291)"/><path class="af" d="M.451.4,1.894.9,3.13,0,3.1,1.529l1.238.9-1.465.441L2.4,4.321,1.529,3.063,0,3.068.927,1.852Z" transform="translate(26.691 71.387)"/><path class="ag" d="M.429.38,1.81.863,2.992,0,2.96,1.463l1.186.856-1.4.422L2.3,4.134l-.834-1.2L0,2.935.885,1.771Z" transform="translate(26.778 69.847)"/><path class="ah" d="M.412.363l1.32.461L2.859,0,2.827,1.4l1.135.819-1.339.4L2.2,3.946,1.4,2.8,0,2.8.848,1.689Z" transform="translate(26.864 69.935)"/><path class="ai" d="M.392.345,1.648.787,2.723,0l-.03,1.332,1.078.779L2.5,2.494,2.089,3.761l-.757-1.1L0,2.669.807,1.611Z" transform="translate(26.951 70.024)"/><path class="aj" d="M.372.328,1.566.747,2.587,0,2.56,1.265l1.026.74L2.373,2.37l-.387,1.2-.72-1.041L0,2.538.767,1.532Z" transform="translate(27.037 70.113)"/><path class="ak" d="M.353.313,1.485.708,2.452,0,2.424,1.2l.972.7-1.147.345L1.882,3.389,1.2,2.4,0,2.4l.725-.952Z" transform="translate(27.124 70.202)"/><path class="al" d="M.333.3,1.4.671,2.318,0,2.294,1.135l.918.663-1.085.326L1.778,3.2l-.644-.932L0,2.274l.688-.9Z" transform="translate(27.21 70.291)"/><g transform="translate(61.767 60.841)"><path class="i" d="M.9.792,3.774,1.8,6.235,0,6.166,3.049,8.637,4.834l-2.92.876-.932,2.9L3.049,6.107,0,6.114,1.847,3.69Z"/><path class="j" d="M.878.777l2.814.984L6.1,0,6.033,2.982l2.42,1.746L5.6,5.586,4.681,8.425l-1.7-2.452L0,5.984,1.808,3.611Z" transform="translate(0.089 0.089)"/><path class="k" d="M.856.76l2.755.962L5.964,0,5.9,2.918,8.265,4.625l-2.794.839L4.578,8.24l-1.662-2.4L0,5.85,1.766,3.529Z" transform="translate(0.18 0.178)"/><path class="l" d="M.839.74l2.691.942L5.831,0,5.767,2.849l2.311,1.67-2.73.819L4.474,8.05,2.851,5.707,0,5.717,1.729,3.448Z" transform="translate(0.269 0.269)"/><path class="m" d="M.819.723l2.627.92L5.695,0,5.631,2.782,7.89,4.412l-2.669.8L4.371,7.865,2.785,5.577,0,5.584,1.687,3.369Z" transform="translate(0.36 0.358)"/><path class="n" d="M.8.705l2.568.9L5.562,0,5.5,2.718,7.7,4.309l-2.6.782L4.267,7.678,2.72,5.443,0,5.453,1.648,3.29Z" transform="translate(0.449 0.446)"/><path class="o" d="M.779.691l2.5.876L5.424,0,5.364,2.651,7.515,4.205l-2.54.762L4.163,7.493,2.651,5.313,0,5.32,1.606,3.209Z" transform="translate(0.54 0.535)"/><path class="p" d="M.762.673,3.2,1.527,5.29,0,5.231,2.587,7.33,4.1l-2.479.745L4.06,7.306,2.587,5.18,0,5.187,1.569,3.13Z" transform="translate(0.629 0.624)"/><path class="q" d="M.74.656l2.38.831L5.155,0,5.1,2.521,7.14,4l-2.412.725-.772,2.4L2.521,5.049,0,5.056,1.527,3.051Z" transform="translate(0.72 0.713)"/><path class="r" d="M.723.639l2.316.811L5.019,0,4.965,2.454l1.99,1.438L4.6,4.6,3.853,6.933l-1.4-2.018L0,4.923,1.487,2.972Z" transform="translate(0.809 0.802)"/><path class="s" d="M.7.619l2.254.789L4.884,0,4.829,2.388l1.936,1.4-2.286.688-.73,2.274L2.387,4.782,0,4.79l1.448-1.9Z" transform="translate(0.9 0.893)"/><path class="t" d="M.683.6l2.193.77L4.75,0,4.7,2.321,6.58,3.68l-2.225.668-.71,2.21L2.323,4.649,0,4.657,1.408,2.809Z" transform="translate(0.989 0.982)"/><path class="u" d="M.663.587l2.129.745L4.615,0,4.563,2.254l1.83,1.322-2.161.649L3.542,6.373,2.257,4.518,0,4.526l1.366-1.8Z" transform="translate(1.08 1.07)"/><path class="v" d="M.644.57l2.069.723L4.479,0,4.43,2.19,6.206,3.473l-2.1.629L3.438,6.186,2.19,4.385,0,4.393,1.327,2.651Z" transform="translate(1.169 1.159)"/><path class="w" d="M.624.552l2.005.7L4.343,0,4.3,2.124,6.018,3.367l-2.035.612L3.332,6,2.124,4.255,0,4.26,1.287,2.57Z" transform="translate(1.26 1.248)"/><path class="x" d="M.607.535l1.941.681L4.21,0,4.163,2.059l1.67,1.2L3.86,3.855,3.231,5.813,2.059,4.121,0,4.129,1.248,2.491Z" transform="translate(1.349 1.337)"/><path class="y" d="M.585.515l1.882.659L4.072,0,4.028,1.99,5.643,3.157l-1.907.572-.612,1.9L1.99,3.988,0,3.993,1.206,2.41Z" transform="translate(1.44 1.428)"/><path class="z" d="M.567.5l1.818.636L3.939,0,3.9,1.924,5.458,3.051l-1.845.555L3.024,5.438l-1.1-1.583L0,3.862,1.167,2.328Z" transform="translate(1.529 1.517)"/><path class="aa" d="M.548.483,2.3,1.1,3.8,0,3.761,1.86,5.268,2.947l-1.781.535-.57,1.771L1.86,3.724,0,3.729l1.127-1.48Z" transform="translate(1.62 1.606)"/><path class="ab" d="M.528.466l1.694.592L3.67,0,3.628,1.793,5.083,2.844l-1.719.515L2.817,5.066,1.8,3.591,0,3.6,1.088,2.17Z" transform="translate(1.709 1.694)"/><path class="ac" d="M.508.449l1.63.572L3.532,0,3.495,1.726,4.9,2.738l-1.655.5-.53,1.645L1.726,3.46,0,3.465,1.046,2.092Z" transform="translate(1.8 1.783)"/><path class="ad" d="M.488.432l1.569.55L3.4,0,3.362,1.662l1.347.972-1.591.478L2.609,4.694,1.662,3.327,0,3.332,1.009,2.01Z" transform="translate(1.889 1.872)"/><path class="ae" d="M.469.417,1.976.942,3.263,0,3.226,1.6l1.295.935-1.529.459L2.5,4.509,1.6,3.2,0,3.2l.967-1.27Z" transform="translate(1.981 1.961)"/><path class="af" d="M.451.4,1.894.9,3.13,0,3.1,1.529l1.238.9-1.465.439L2.4,4.319,1.529,3.061,0,3.066.927,1.85Z" transform="translate(2.069 2.052)"/><path class="ag" d="M.429.38,1.81.863,2.992,0,2.96,1.463l1.186.856-1.4.422L2.3,4.134l-.834-1.2L0,2.935.885,1.771Z" transform="translate(2.161 2.141)"/><path class="ah" d="M.412.363l1.32.461L2.859,0,2.827,1.4l1.135.819-1.339.4L2.2,3.946,1.4,2.8,0,2.8.848,1.69Z" transform="translate(2.249 2.23)"/><path class="ai" d="M.392.345,1.648.787,2.723,0l-.03,1.332,1.078.779L2.5,2.494,2.089,3.761l-.757-1.1L0,2.671.807,1.611Z" transform="translate(2.341 2.318)"/><path class="aj" d="M.372.328,1.566.747,2.587,0,2.56,1.265l1.026.74L2.373,2.37l-.387,1.2-.72-1.041L0,2.538.767,1.532Z" transform="translate(2.429 2.407)"/><path class="ak" d="M.353.313,1.485.708,2.452,0,2.424,1.2l.972.7-1.147.345L1.882,3.389,1.2,2.4,0,2.4l.725-.952Z" transform="translate(2.521 2.496)"/><path class="al" d="M.333.3,1.4.671,2.318,0,2.294,1.135l.918.663-1.085.326L1.778,3.2l-.644-.932L0,2.274l.688-.9Z" transform="translate(2.609 2.585)"/></g><g transform="translate(22.198 40.258)"><path class="i" d="M.9.792,3.776,1.8,6.235,0,6.169,3.049,8.64,4.832,5.72,5.71l-.932,2.9L3.051,6.1,0,6.114,1.847,3.69Z"/><path class="j" d="M.876.774l2.817.987L6.1,0,6.033,2.982l2.42,1.746-2.859.858L4.681,8.425l-1.7-2.452L0,5.984,1.808,3.608Z" transform="translate(0.091 0.089)"/><path class="k" d="M.858.757l2.753.964L5.966,0,5.9,2.915,8.265,4.625l-2.792.839-.9,2.777-1.66-2.4L0,5.85,1.768,3.529Z" transform="translate(0.18 0.178)"/><path class="l" d="M.839.742l2.691.942L5.831,0,5.767,2.851,8.078,4.518l-2.73.821L4.474,8.053,2.851,5.71,0,5.717,1.727,3.451Z" transform="translate(0.271 0.266)"/><path class="m" d="M.819.725l2.629.92L5.695,0,5.633,2.785,7.89,4.415l-2.666.8L4.371,7.868,2.785,5.577,0,5.586,1.687,3.372Z" transform="translate(0.36 0.355)"/><path class="n" d="M.8.705l2.565.9L5.559,0,5.5,2.718,7.7,4.309l-2.6.782L4.267,7.678,2.718,5.443,0,5.451,1.648,3.288Z" transform="translate(0.451 0.446)"/><path class="o" d="M.782.688l2.5.878L5.426,0,5.367,2.651,7.518,4.2l-2.54.765L4.163,7.493,2.654,5.31,0,5.32,1.608,3.209Z" transform="translate(0.54 0.535)"/><path class="p" d="M.76.671,3.2,1.527,5.29,0,5.231,2.585,7.328,4.1l-2.476.745L4.06,7.306,2.587,5.18,0,5.187,1.566,3.13Z" transform="translate(0.631 0.624)"/><path class="q" d="M.742.656l2.378.831L5.155,0,5.1,2.521,7.143,4l-2.415.725-.772,2.4L2.521,5.046,0,5.056,1.529,3.051Z" transform="translate(0.72 0.713)"/><path class="r" d="M.72.639l2.318.811L5.019,0,4.965,2.454,6.953,3.892,4.6,4.6l-.75,2.336-1.4-2.018L0,4.923,1.487,2.97Z" transform="translate(0.811 0.802)"/><path class="s" d="M.7.622l2.254.789L4.886,0,4.832,2.388l1.936,1.4-2.286.688L3.749,6.748,2.39,4.782,0,4.79l1.448-1.9Z" transform="translate(0.9 0.89)"/><path class="t" d="M.683.6l2.19.767L4.748,0,4.7,2.323,6.58,3.682l-2.225.668-.71,2.21L2.321,4.652,0,4.659,1.406,2.812Z" transform="translate(0.992 0.979)"/><path class="u" d="M.663.585l2.131.747L4.615,0,4.565,2.254,6.393,3.576l-2.161.649L3.542,6.371,2.257,4.518,0,4.523,1.369,2.73Z" transform="translate(1.08 1.07)"/><path class="v" d="M.644.57l2.067.723L4.479,0,4.43,2.19,6.206,3.47l-2.1.631L3.438,6.186,2.19,4.385,0,4.393,1.327,2.649Z" transform="translate(1.172 1.159)"/><path class="w" d="M.626.552l2,.7L4.346,0,4.3,2.124,6.018,3.367l-2.032.612L3.335,6,2.126,4.255,0,4.26,1.287,2.57Z" transform="translate(1.26 1.248)"/><path class="x" d="M.6.535l1.944.681L4.208,0,4.163,2.057,5.831,3.263,3.86,3.855,3.229,5.813,2.057,4.121,0,4.129,1.246,2.491Z" transform="translate(1.352 1.337)"/><path class="y" d="M.587.518l1.879.659L4.075,0,4.03,1.993,5.646,3.157l-1.909.575L3.127,5.626,1.993,3.991,0,4,1.209,2.41Z" transform="translate(1.44 1.426)"/><path class="z" d="M.565.5l1.818.636L3.939,0,3.894,1.926,5.456,3.053l-1.845.555L3.021,5.441l-1.1-1.583L0,3.862,1.167,2.331Z" transform="translate(1.532 1.514)"/><path class="aa" d="M.548.483,2.3,1.1,3.806,0,3.764,1.857l1.507,1.09L3.49,3.483,2.92,5.251,1.86,3.724,0,3.729l1.127-1.48Z" transform="translate(1.62 1.606)"/><path class="ab" d="M.528.466l1.692.592L3.668,0,3.628,1.793,5.083,2.841l-1.719.518-.55,1.707L1.793,3.591,0,3.6,1.088,2.17Z" transform="translate(1.712 1.694)"/><path class="ac" d="M.508.449l1.633.57L3.534,0,3.495,1.726,4.9,2.738l-1.655.5L2.713,4.879,1.729,3.46,0,3.465,1.048,2.089Z" transform="translate(1.8 1.783)"/><path class="ad" d="M.488.432l1.569.55L3.4,0,3.362,1.662l1.347.972-1.593.478L2.607,4.694,1.662,3.327,0,3.332,1.006,2.01Z" transform="translate(1.892 1.872)"/><path class="ae" d="M.471.414l1.5.528L3.263,0,3.229,1.6l1.292.935-1.527.459L2.506,4.506,1.6,3.2,0,3.2l.967-1.27Z" transform="translate(1.981 1.961)"/><path class="af" d="M.449.4,1.894.9,3.127,0,3.093,1.529l1.241.9-1.465.441L2.4,4.321,1.529,3.063,0,3.068.927,1.852Z" transform="translate(2.072 2.05)"/><path class="ag" d="M.432.382,1.813.866,2.994,0,2.96,1.465l1.189.856-1.4.422L2.3,4.134l-.834-1.2L0,2.935.888,1.771Z" transform="translate(2.161 2.138)"/><path class="ah" d="M.409.363l1.32.461L2.859,0,2.827,1.4l1.132.819-1.337.4L2.193,3.946,1.4,2.8,0,2.8.846,1.69Z" transform="translate(2.252 2.23)"/><path class="ai" d="M.392.345,1.65.784,2.723,0l-.03,1.329,1.08.779L2.5,2.494,2.092,3.759l-.76-1.093L0,2.669.807,1.611Z" transform="translate(2.341 2.318)"/><path class="aj" d="M.372.328,1.566.747,2.587,0l-.03,1.265,1.026.74L2.373,2.37l-.387,1.2-.72-1.041L0,2.538.767,1.532Z" transform="translate(2.432 2.407)"/><path class="ak" d="M.353.311l1.132.4L2.454,0,2.427,1.2l.972.7-1.149.345L1.884,3.386,1.2,2.4,0,2.4.728,1.45Z" transform="translate(2.521 2.496)"/><path class="al" d="M.333.3,1.4.668,2.316,0,2.291,1.135l.92.661-1.085.328L1.778,3.2l-.646-.932L0,2.274l.686-.9Z" transform="translate(2.612 2.585)"/></g><path class="am" d="M2.261,25.5C-.085,17.985,18.539,13.075,16.748,7.323L13.838,0C15.631,5.752-2.13,13.242.213,20.762Z" transform="translate(0.055 21.554)"/><path class="an" d="M21.031,15.339C18.688,7.819,2.891,10.788,1.1,5.039L0,0C1.793,5.752,17.588,2.782,19.934,10.3Z" transform="translate(0 39.145)"/><path class="ao" d="M2.328,24.117c-2.5-7.471,10.135-13.657,8.226-19.369L8.554,0C10.463,5.712-2.168,11.9.328,19.369Z" transform="translate(10.707 46.106)"/><path class="ap" d="M24.751,33.457C26.951,24.292.6,16.13,0,6.686L.247,0C2.975,7.483,29.373,19.342,25.959,28.408Z" transform="translate(67.877 22.463)"/><path class="aq" d="M0,8.244C2.2-.922,20.331,13.285,22.042,6.157l1.211-5.049C21.542,8.236,3.414-5.97,1.213,3.195Z" transform="translate(70.711 47.423)"/><path class="ar" d="M7.029,25.937C8.61,18.55-2,13.977.338,5.049L1.549,0C-.161,7.128,10.428,11.725,8.24,20.888Z" transform="translate(70.502 48.342)"/><path class="as" d="M1.243,22.933c2.2-9.163,21.369-10.756,23.081-17.884L25.535,0C23.808,6.191,2.193,4.235,0,13.886Z" transform="translate(53.207 66.823)"/><path class="at" d="M1.4,7.92A31.772,31.772,0,0,1,0,0L.025.015C1.048.6,1.712.959,2.03,1.139c.434.247,1.051.6,1.815,1.09a36.717,36.717,0,0,0,3.081,7.4,42.345,42.345,0,0,0,2.291,3.636,37.934,37.934,0,0,0,22.3,14.692L26.8,31.41A37.736,37.736,0,0,1,1.4,7.92Z" transform="translate(29.134 23.364)"/><circle class="au" cx="3.056" cy="3.056" r="3.056" transform="translate(0 54.324)"/><circle class="av" cx="2.259" cy="2.259" r="2.259" transform="translate(25.271 59.626)"/><circle class="aw" cx="3.056" cy="3.056" r="3.056" transform="translate(47.866 58)"/><circle class="ax" cx="3.056" cy="3.056" r="3.056" transform="translate(61.508 40.959)"/><circle class="ay" cx="2.161" cy="2.161" r="2.161" transform="translate(88.065 65.481)"/><circle class="az" cx="2.032" cy="2.032" r="2.032" transform="translate(28.718 82.966)"/><circle class="ba" cx="2.817" cy="2.817" r="2.817" transform="translate(39.43 71.872)"/><circle class="bb" cx="2.817" cy="2.817" r="2.817" transform="translate(81.011 76.859)"/><circle class="bc" cx="2.405" cy="2.405" r="2.405" transform="translate(35.271 50.937)"/><circle class="bd" cx="2.422" cy="2.422" r="2.422" transform="translate(14.503 73.221)"/><circle class="be" cx="1.768" cy="1.768" r="1.768" transform="translate(87.584 33.75)"/></g></g></svg>