<svg xmlns="http://www.w3.org/2000/svg" width="25" height="20.811" viewBox="0 0 25 20.811"><defs></defs><path class="a" d="M4.762,17.947c7.693-3.384,17.648-7.51,19.022-8.082,3.6-1.495,4.711-1.208,4.159,2.1-.4,2.379-1.539,10.256-2.45,15.159-.54,2.907-1.753,3.252-3.66,1.994-.917-.605-5.545-3.666-6.549-4.384-.917-.655-2.182-1.443-.6-2.994.564-.553,4.264-4.085,7.146-6.835a.427.427,0,0,0-.533-.665c-3.885,2.576-9.271,6.152-9.957,6.618a3.988,3.988,0,0,1-3.816.513c-1.349-.387-2.667-.85-3.18-1.026C2.375,19.669,2.844,18.791,4.762,17.947Z" transform="translate(-3.078 -9)"/></svg>