<svg xmlns="http://www.w3.org/2000/svg" width="20.079" height="20.542" viewBox="0 0 20.079 20.542"><defs><style>.a{fill:#c22de1;opacity:0.7;}</style></defs><path class="a" d="M18.685,3.031a5.38,5.38,0,0,0-1.345.224C15.9,3.634,7.472,5.967,7.346,6a6.409,6.409,0,0,0-2.54,1.479,3.643,3.643,0,0,1,2.062-.642H20.254v-1.6C20.254,4.469,20.248,3.031,18.685,3.031ZM6.868,7.8A2.991,2.991,0,0,0,4,10.665V20.884a2.7,2.7,0,0,0,2.689,2.689h14.7a2.7,2.7,0,0,0,2.689-2.689V10.591A2.943,2.943,0,0,0,21.21,7.8ZM20.493,14.49a1.2,1.2,0,1,1-1.2,1.2A1.2,1.2,0,0,1,20.493,14.49Z" transform="translate(-4 -3.031)"/></svg>